<svg width="22" height="17" viewBox="0 0 22 17" fill="none" xmlns="http://www.w3.org/2000/svg">
<path opacity="0.6" d="M18.3107 1.53753C16.9113 0.889553 15.415 0.41881 13.8508 0.151033C13.6588 0.495141 13.4346 0.957961 13.28 1.32612C11.6172 1.07905 9.9698 1.07967 8.33778 1.32799C8.18294 0.959939 7.95325 0.49729 7.75931 0.153328C6.19361 0.422283 4.69598 0.895885 3.29703 1.54662C0.476429 5.77236 -0.287069 9.89238 0.0969865 13.9535C1.96933 15.3375 3.78367 16.178 5.56729 16.7277C6.0074 16.1272 6.39988 15.4889 6.73794 14.8162C6.09351 14.5739 5.47626 14.2749 4.89301 13.9276C5.04767 13.814 5.19894 13.6953 5.34509 13.5731C8.90234 15.2196 12.7667 15.2182 16.2802 13.569C16.4282 13.691 16.5795 13.8097 16.7326 13.9231C16.1479 14.2725 15.5292 14.5721 14.8849 14.8149C15.2235 15.4856 15.6147 16.1254 16.057 16.7255C17.8419 16.1744 19.6573 15.3326 21.5286 13.9454C21.9757 9.23723 20.7586 5.15578 18.3107 1.53753ZM7.22122 11.4532C6.15355 11.4536 5.27761 10.4665 5.27716 9.26415C5.2767 8.06177 6.13321 7.07237 7.21957 7.07196C8.30596 7.07155 9.18187 8.05857 9.16363 9.26269C9.16577 10.4651 8.30761 11.4528 7.22122 11.4532ZM14.4025 11.4505C13.3348 11.4509 12.4589 10.4638 12.4584 9.26145C12.458 8.05907 13.3145 7.06967 14.4009 7.06926C15.4872 7.06885 16.3632 8.05587 16.3449 9.25998C16.3454 10.4624 15.4889 11.4501 14.4025 11.4505Z" fill="#7979AC"/>
</svg>
