<svg width="141" height="140" viewBox="0 0 141 140" fill="none" xmlns="http://www.w3.org/2000/svg">
<g filter="url(#filter0_d_66_173)">
<path fill-rule="evenodd" clip-rule="evenodd" d="M110.07 43.0719C110.054 42.8556 109.96 42.6523 109.807 42.4989C109.653 42.3455 109.45 42.2523 109.234 42.2362C109.015 42.249 108.808 42.3409 108.652 42.4946C108.496 42.6483 108.4 42.8535 108.384 43.0721C108.378 47.2958 107.121 51.4231 104.77 54.9321C102.419 58.4411 99.0804 61.1743 95.1764 62.7861C91.2724 64.398 86.978 64.8162 82.8364 63.9878C78.6947 63.1594 74.8917 61.1217 71.908 58.1322C68.9243 55.1426 66.894 51.3356 66.0737 47.1923C65.2534 43.049 65.68 38.7555 67.2995 34.8546C68.919 30.9538 71.6588 27.6207 75.1724 25.2767C78.686 22.9327 82.8156 21.6831 87.0393 21.6859C87.2442 21.6595 87.4325 21.5594 87.5689 21.4042C87.7054 21.2491 87.7807 21.0496 87.7807 20.843C87.7807 20.6364 87.7054 20.4369 87.5689 20.2817C87.4325 20.1266 87.2442 20.0264 87.0393 20C82.4804 19.9972 78.0232 21.3468 74.2314 23.8778C70.4397 26.4089 67.4839 30.0078 65.738 34.2192C63.9922 38.4305 63.5346 43.0651 64.4233 47.5365C65.312 52.0079 67.5071 56.1153 70.7307 59.3389C73.9543 62.5626 78.0617 64.7576 82.5331 65.6464C87.0046 66.5351 91.6391 66.0776 95.8505 64.3317C100.062 62.5858 103.661 59.63 106.192 55.8382C108.715 52.058 110.064 47.6163 110.07 43.0719ZM110.07 43.0719L110.07 43.0582V43.0721L110.07 43.0719ZM84.3643 25.2387L83.389 29.7389C82.2182 30.0805 81.0878 30.5476 80.0174 31.1321L76.0745 28.6521C75.9026 28.5386 75.6959 28.4903 75.4915 28.5159C75.2871 28.5414 75.0986 28.6391 74.9599 28.7914L72.5636 31.1739C72.4384 31.3308 72.3591 31.5193 72.3345 31.7185C72.3099 31.9176 72.341 32.1198 72.4242 32.3024L74.9599 36.2314C74.3749 37.3015 73.9078 38.432 73.5667 39.603L69.0666 40.5922C68.8733 40.6329 68.6995 40.7375 68.5731 40.8892C68.4467 41.0408 68.3751 41.2307 68.3699 41.4281V44.7998C68.3745 44.9989 68.4455 45.1908 68.5717 45.3448C68.698 45.4989 68.8722 45.6062 69.0666 45.6497L73.5667 46.6388C73.9053 47.8062 74.3726 48.9324 74.9599 49.9966L72.4242 53.9395C72.3108 54.1114 72.2625 54.3181 72.288 54.5225C72.3135 54.7269 72.4113 54.9154 72.5636 55.0541L74.9599 57.4504C75.1132 57.5773 75.2995 57.6579 75.4969 57.6825C75.6944 57.7072 75.8947 57.6751 76.0745 57.5898L80.0174 55.0541C81.0853 55.6439 82.2163 56.1113 83.389 56.4473L84.3643 60.9474C84.4078 61.1418 84.5151 61.316 84.6692 61.4423C84.8232 61.5685 85.0151 61.6395 85.2142 61.6441H88.5859C88.7833 61.6389 88.9731 61.5673 89.1248 61.4409C89.2765 61.3145 89.3811 61.1407 89.4218 60.9474L90.411 56.4473C91.582 56.1062 92.7125 55.6391 93.7826 55.0541L97.7116 57.5898C97.8856 57.7042 98.0947 57.7531 98.3014 57.7275C98.5082 57.702 98.6991 57.6038 98.8401 57.4504L101.223 55.0541C101.349 54.9008 101.43 54.7145 101.455 54.5171C101.479 54.3196 101.447 54.1193 101.362 53.9395L98.8401 49.9966C99.416 48.9269 99.8827 47.802 100.233 46.6388L104.72 45.6497C104.915 45.6066 105.091 45.4998 105.22 45.346C105.349 45.1922 105.422 45.0002 105.43 44.7998V41.4281C105.422 41.2295 105.347 41.0394 105.219 40.888C105.09 40.7365 104.914 40.6324 104.72 40.5922L100.233 39.603C99.8802 38.4363 99.4136 37.307 98.8401 36.2314L101.362 32.3024C101.641 32.0238 101.501 31.4665 101.223 31.1739L98.8401 28.7914C98.684 28.6648 98.4953 28.5846 98.2958 28.5599C98.0963 28.5353 97.8939 28.5673 97.7116 28.6521L93.9219 31.1739C92.8739 30.5437 91.7375 30.0741 90.5503 29.7806L89.5611 25.2805C89.5204 25.0873 89.4158 24.9134 89.2641 24.787C89.1125 24.6606 88.9226 24.589 88.7252 24.5839H85.3536C85.1421 24.5818 84.9349 24.643 84.7586 24.7597C84.5823 24.8764 84.445 25.0432 84.3643 25.2387ZM88.0146 26.3672L89.0038 30.7141C89.0623 30.8755 89.1547 31.0225 89.2749 31.1451C89.395 31.2677 89.5402 31.363 89.7005 31.4247C91.05 31.7031 92.3384 32.2223 93.504 32.9573C93.6553 33.0332 93.8223 33.0727 93.9917 33.0727C94.161 33.0727 94.3279 33.0332 94.4793 32.9573L98.1296 30.5748L99.5228 31.968L97.1403 35.7576C97.0716 35.9135 97.0362 36.082 97.0362 36.2523C97.0362 36.4226 97.0716 36.591 97.1403 36.7468C97.8583 37.9176 98.3808 39.1977 98.6869 40.5365C98.7437 40.6972 98.8357 40.8432 98.9562 40.9637C99.0767 41.0843 99.2228 41.1763 99.3835 41.2331L103.744 42.2223V44.1868L99.3835 45.1759C99.2228 45.2327 99.0767 45.3248 98.9562 45.4453C98.8357 45.5659 98.7437 45.7118 98.6869 45.8726C98.4061 47.2193 97.882 48.5035 97.1403 49.6622C97.0716 49.8181 97.0362 49.9865 97.0362 50.1568C97.0362 50.3271 97.0716 50.4955 97.1403 50.6514L99.5228 54.441L98.1296 55.8343L94.2981 53.4657C94.1449 53.3965 93.9787 53.3607 93.8105 53.3607C93.6424 53.3607 93.4761 53.3965 93.3229 53.4657C92.1486 54.1867 90.8635 54.7092 89.5193 55.0122C89.3581 55.0722 89.2122 55.167 89.0918 55.2898C88.9714 55.4126 88.8795 55.5604 88.8227 55.7228L87.8335 60.0697H85.9387L84.9634 55.7228C84.9043 55.5595 84.81 55.4112 84.6872 55.2884C84.5644 55.1656 84.4161 55.0713 84.2528 55.0122C82.905 54.7351 81.6202 54.2108 80.4633 53.4657C80.3074 53.397 80.139 53.3616 79.9687 53.3616C79.7984 53.3616 79.6299 53.397 79.474 53.4657L75.6845 55.8622L74.2912 54.4689L76.6875 50.6793C76.7563 50.5234 76.7917 50.355 76.7917 50.1847C76.7917 50.0144 76.7563 49.8459 76.6875 49.69C75.9402 48.5343 75.4157 47.249 75.1411 45.9005C75.0837 45.7378 74.9899 45.5903 74.8667 45.4696C74.7436 45.3488 74.5943 45.2579 74.4305 45.2038L70.0836 44.2146V42.2502L74.4305 41.2609C74.5943 41.2068 74.7436 41.116 74.8667 40.9952C74.9899 40.8744 75.0837 40.727 75.1411 40.5643C75.4157 39.2157 75.9402 37.9304 76.6875 36.7747C76.7563 36.6189 76.7917 36.4504 76.7917 36.2801C76.7917 36.1098 76.7563 35.9413 76.6875 35.7855L74.4305 31.9959L75.8237 30.6027L79.6273 32.9851C79.7786 33.0611 79.9456 33.1006 80.115 33.1006C80.2843 33.1006 80.4512 33.0611 80.6026 32.9851C81.7632 32.2503 83.0471 31.7311 84.3922 31.4525C84.5541 31.391 84.7011 31.2958 84.8236 31.1734C84.9461 31.0509 85.0413 30.9039 85.1028 30.742L86.078 26.3951L88.0146 26.3672ZM82.6786 43.0723C82.6786 43.899 82.9238 44.7071 83.383 45.3945C83.8423 46.0818 84.4951 46.6176 85.2589 46.9339C86.0226 47.2503 86.863 47.333 87.6738 47.1718C88.4846 47.0105 89.2293 46.6124 89.8139 46.0278C90.3984 45.4433 90.7965 44.6985 90.9578 43.8877C91.119 43.0769 91.0363 42.2366 90.7199 41.4728C90.4036 40.7091 89.8679 40.0563 89.1805 39.597C88.4931 39.1377 87.685 38.8926 86.8583 38.8926C85.7608 38.9274 84.7179 39.379 83.9415 40.1555C83.165 40.9319 82.7135 41.9748 82.6786 43.0723ZM89.5612 43.0723C89.564 43.575 89.4172 44.0672 89.1397 44.4863C88.8621 44.9054 88.4663 45.2326 88.0024 45.4262C87.5385 45.6199 87.0275 45.6713 86.5343 45.5739C86.0412 45.4765 85.588 45.2347 85.2326 44.8792C84.8771 44.5238 84.6353 44.0707 84.5379 43.5775C84.4405 43.0843 84.4919 42.5733 84.6855 42.1094C84.8792 41.6455 85.2064 41.2496 85.6255 40.9721C86.0447 40.6945 86.5368 40.5478 87.0394 40.5505C87.7016 40.5715 88.331 40.8439 88.7994 41.3124C89.2679 41.7808 89.5403 42.4101 89.5612 43.0723ZM80.5457 49.4269C78.8604 47.7416 77.9136 45.4558 77.9136 43.0725C77.9318 40.6948 78.8845 38.4196 80.5658 36.7383C82.2472 35.0569 84.5223 34.1044 86.9 34.0862C87.1049 34.1126 87.2932 34.2127 87.4296 34.3678C87.5661 34.5229 87.6413 34.7225 87.6413 34.929C87.6413 35.1356 87.5661 35.3352 87.4296 35.4903C87.2932 35.6454 87.1049 35.7455 86.9 35.7719C85.4561 35.7719 84.0446 36.2001 82.844 37.0023C81.6435 37.8045 80.7077 38.9447 80.1552 40.2787C79.6026 41.6127 79.458 43.0806 79.7397 44.4968C80.0214 45.913 80.7167 47.2138 81.7377 48.2348C82.7587 49.2558 84.0596 49.9512 85.4757 50.2329C86.8919 50.5145 88.3598 50.3699 89.6938 49.8174C91.0278 49.2648 92.168 48.3291 92.9702 47.1285C93.7724 45.9279 94.2006 44.5164 94.2006 43.0725C94.227 42.8676 94.3271 42.6793 94.4822 42.5429C94.6374 42.4065 94.8369 42.3312 95.0435 42.3312C95.2501 42.3312 95.4497 42.4065 95.6048 42.5429C95.7599 42.6793 95.8601 42.8676 95.8865 43.0725C95.8865 45.4558 94.9397 47.7416 93.2544 49.4269C91.5691 51.1122 89.2834 52.0589 86.9 52.0589C84.5167 52.0589 82.2309 51.1122 80.5457 49.4269ZM56.6947 90.4154L55.7054 94.9156C55.6516 95.1059 55.5442 95.2767 55.396 95.4076C55.2478 95.5385 55.065 95.6241 54.8695 95.654H51.4979C51.3005 95.6489 51.1106 95.5773 50.9589 95.4509C50.8072 95.3245 50.7026 95.1506 50.6619 94.9574L49.6727 90.4572C48.5008 90.1186 47.3701 89.6514 46.301 89.0639L42.3721 91.5996C42.1898 91.6845 41.9874 91.7165 41.7879 91.6918C41.5884 91.6672 41.3997 91.587 41.2436 91.4604L38.8612 89.0639C38.7037 88.9286 38.6021 88.7396 38.5764 88.5336C38.5506 88.3275 38.6025 88.1193 38.7218 87.9494L41.2436 84.0065C40.6595 82.9358 40.1924 81.8055 39.8503 80.6348L35.3641 79.6596C35.1661 79.6211 34.9872 79.5157 34.8578 79.3609C34.7284 79.2061 34.6563 79.0114 34.6536 78.8097V75.4381C34.6594 75.2387 34.733 75.0473 34.8622 74.8954C34.9913 74.7434 35.1683 74.64 35.3641 74.6021L39.8503 73.6129C40.1974 72.4441 40.6643 71.3141 41.2436 70.2412L38.7218 66.3124C38.63 66.1318 38.5943 65.9279 38.6191 65.7268C38.6439 65.5257 38.7282 65.3366 38.8612 65.1838L41.2436 62.8014C41.3845 62.648 41.5755 62.5498 41.7823 62.5242C41.989 62.4987 42.198 62.5475 42.3721 62.662L46.301 65.1838C47.3756 64.6079 48.5051 64.1412 49.6727 63.7905L50.6619 59.3043C50.7021 59.1096 50.8062 58.934 50.9577 58.8052C51.1091 58.6765 51.2993 58.6021 51.4979 58.5938H54.8695C55.0681 58.6021 55.2582 58.6765 55.4097 58.8052C55.5611 58.934 55.6652 59.1096 55.7054 59.3043L56.6947 63.7488C57.8797 64.0486 59.0153 64.5178 60.0663 65.142L63.9952 62.6202C64.1775 62.5354 64.3799 62.5034 64.5794 62.5281C64.779 62.5527 64.9676 62.6329 65.1238 62.7595L67.5062 65.142C67.6643 65.2795 67.767 65.4698 67.7952 65.6774C67.8234 65.885 67.7751 66.0958 67.6595 66.2705L65.1238 70.1995C65.703 71.2724 66.1699 72.4022 66.517 73.5711L71.0033 74.5603C71.1991 74.5982 71.3761 74.7017 71.5053 74.8536C71.6344 75.0056 71.7079 75.1969 71.7138 75.3962V78.7679C71.711 78.9696 71.6389 79.1643 71.5095 79.3191C71.3801 79.4739 71.2014 79.5794 71.0033 79.6178L66.517 80.5931C66.1749 81.7637 65.7078 82.8941 65.1238 83.9647L67.6595 87.9076C67.7446 88.0883 67.7755 88.2898 67.7482 88.4876C67.721 88.6855 67.637 88.8712 67.5062 89.0222L65.1238 91.4185C64.9828 91.5719 64.7919 91.6701 64.5851 91.6957C64.3784 91.7212 64.1693 91.6724 63.9952 91.5579L60.0663 89.0222C58.9973 89.6096 57.8665 90.0769 56.6947 90.4154ZM51.0799 89.4262L52.0551 93.787L54.0335 93.7592L55.1482 89.5794C55.2037 89.4142 55.2967 89.264 55.42 89.1407C55.5432 89.0174 55.6934 88.9244 55.8587 88.8689C57.198 88.5644 58.4783 88.042 59.6483 87.3224C59.8016 87.2531 59.9678 87.2174 60.1359 87.2174C60.3041 87.2174 60.4704 87.2531 60.6236 87.3224L64.4271 89.7188L65.8204 88.3256L63.4379 84.5359C63.3692 84.3801 63.3337 84.2116 63.3337 84.0413C63.3337 83.871 63.3692 83.7026 63.4379 83.5468C64.1771 82.3868 64.701 81.103 64.9845 79.7571C65.0437 79.5961 65.1364 79.4496 65.2565 79.3271C65.3766 79.2046 65.5213 79.1089 65.6811 79.0465L70.0419 78.0712V76.1068L65.6811 75.1176C65.5204 75.0608 65.3743 74.9688 65.2538 74.8483C65.1332 74.7277 65.0413 74.5817 64.9845 74.421C64.6783 73.0821 64.1559 71.8022 63.4379 70.6314C63.3692 70.4755 63.3337 70.3071 63.3337 70.1368C63.3337 69.9665 63.3692 69.798 63.4379 69.6421L65.8204 65.8526L64.4271 64.4593L60.6236 66.8417C60.4704 66.911 60.3041 66.9468 60.1359 66.9468C59.9678 66.9468 59.8016 66.911 59.6483 66.8417C58.4842 66.1107 57.2019 65.5874 55.8587 65.2952C55.6949 65.2411 55.5457 65.1503 55.4225 65.0295C55.2993 64.9087 55.2055 64.7613 55.1482 64.5986L54.1729 60.2378H52.2084L51.2192 64.5986C51.1624 64.7593 51.0704 64.9054 50.9498 65.0259C50.8293 65.1465 50.6833 65.2385 50.5226 65.2952C49.1742 65.5848 47.8869 66.1082 46.719 66.8417C46.5658 66.911 46.3996 66.9468 46.2314 66.9468C46.0632 66.9468 45.897 66.911 45.7438 66.8417L41.9402 64.4593L40.547 65.8526L42.9294 69.6421C42.9981 69.798 43.0336 69.9665 43.0336 70.1368C43.0336 70.3071 42.9981 70.4755 42.9294 70.6314C42.1878 71.7901 41.6637 73.0742 41.3829 74.421C41.3262 74.5817 41.2341 74.7277 41.1135 74.8483C40.993 74.9688 40.8471 75.0608 40.6863 75.1176L36.3255 76.1068V78.0712L40.6863 78.9072C40.8475 78.9672 40.9935 79.062 41.1139 79.1848C41.2343 79.3076 41.3262 79.4555 41.3829 79.6178C41.6664 80.9637 42.1903 82.2474 42.9294 83.4074C42.9981 83.5632 43.0336 83.7317 43.0336 83.902C43.0336 84.0723 42.9981 84.2408 42.9294 84.3966L40.547 88.1862L41.9402 89.5794L45.6044 87.1831C45.7577 87.1139 45.924 87.078 46.0921 87.078C46.2603 87.078 46.4265 87.1139 46.5797 87.1831C47.7378 87.9258 49.0222 88.45 50.3693 88.7296C50.5331 88.7837 50.6823 88.8745 50.8055 88.9953C50.9287 89.1161 51.0225 89.2635 51.0799 89.4262ZM57.3912 77.0665C57.3912 76.2398 57.1461 75.4317 56.6868 74.7444C56.2275 74.057 55.5747 73.5212 54.811 73.2049C54.0472 72.8885 53.2069 72.8058 52.3961 72.967C51.5853 73.1283 50.8405 73.5264 50.256 74.1109C49.6714 74.6955 49.2733 75.4403 49.1121 76.2511C48.9508 77.0619 49.0335 77.9023 49.3499 78.666C49.6663 79.4298 50.202 80.0825 50.8893 80.5418C51.5767 81.001 52.3848 81.2462 53.2115 81.2462C54.309 81.2113 55.3519 80.7598 56.1283 79.9833C56.9048 79.2069 57.3564 78.164 57.3912 77.0665ZM50.5226 77.0665C50.5253 76.5683 50.6755 76.0821 50.9543 75.6692C51.2331 75.2564 51.6278 74.9353 52.0888 74.7466C52.5499 74.5579 53.0565 74.51 53.5448 74.6088C54.033 74.7077 54.481 74.9489 54.8323 75.3021C55.1836 75.6554 55.4224 76.1047 55.5185 76.5935C55.6147 77.0823 55.564 77.5887 55.3727 78.0487C55.1814 78.5086 54.8583 78.9016 54.4439 79.1781C54.0295 79.4546 53.5425 79.6022 53.0443 79.6022C52.3798 79.5811 51.7485 79.3067 51.2796 78.8353C50.8108 78.3639 50.54 77.7311 50.5226 77.0665ZM59.5381 70.7121C61.2233 72.3974 62.1701 74.6832 62.1701 77.0665C62.1555 79.4466 61.2045 81.7253 59.5228 83.4096C57.841 85.094 55.5638 86.0486 53.1837 86.0669C52.9651 86.0504 52.7599 85.9551 52.6062 85.7988C52.4525 85.6425 52.3607 85.4358 52.3478 85.2169C52.3639 85.0006 52.4571 84.7972 52.6105 84.6438C52.764 84.4904 52.9673 84.3971 53.1837 84.381C54.627 84.381 56.038 83.9532 57.2382 83.1516C58.4385 82.3501 59.3742 81.2107 59.9272 79.8775C60.4802 78.5443 60.6255 77.0771 60.345 75.6613C60.0644 74.2455 59.3705 72.9446 58.3509 71.9231C57.3313 70.9015 56.0317 70.2051 54.6165 69.9218C53.2012 69.6385 51.7338 69.7812 50.3995 70.3316C49.0653 70.882 47.9241 71.8156 47.1202 73.0143C46.3164 74.2131 45.8859 75.6232 45.8831 77.0665C45.8986 77.1863 45.8883 77.308 45.853 77.4235C45.8177 77.539 45.7582 77.6456 45.6784 77.7363C45.5987 77.827 45.5005 77.8997 45.3904 77.9494C45.2804 77.9992 45.161 78.025 45.0402 78.025C44.9195 78.025 44.8 77.9992 44.69 77.9494C44.5799 77.8997 44.4818 77.827 44.402 77.7363C44.3223 77.6456 44.2628 77.539 44.2275 77.4235C44.1922 77.308 44.1818 77.1863 44.1973 77.0665C44.1973 74.6832 45.144 72.3974 46.8293 70.7121C48.5146 69.0269 50.8003 68.0801 53.1837 68.0801C55.567 68.0801 57.8528 69.0269 59.5381 70.7121ZM53.0443 53.8984C46.935 53.8984 41.0757 56.3244 36.7545 60.643C32.4332 64.9617 30.0037 70.8195 30 76.9288C30.0161 77.1488 30.1109 77.3558 30.2669 77.5118C30.423 77.6678 30.6299 77.7625 30.8499 77.7786C31.0685 77.7621 31.2737 77.6669 31.4274 77.5106C31.5812 77.3543 31.673 77.1476 31.6859 76.9288C31.6914 72.7057 32.9487 68.5789 35.2989 65.0702C37.6491 61.5615 40.9868 58.8284 44.89 57.2161C48.7932 55.6038 53.0869 55.1848 57.2282 56.012C61.3695 56.8393 65.1725 58.8756 68.1567 61.8637C71.141 64.8519 73.1724 68.6576 73.9943 72.8C74.8161 76.9423 74.3915 81.2354 72.7742 85.1365C71.1568 89.0376 68.4192 92.3717 64.9074 94.7173C61.3956 97.063 57.2674 98.315 53.0443 98.315C52.8279 98.3311 52.6245 98.4243 52.471 98.5778C52.3176 98.7312 52.2244 98.9345 52.2083 99.1509C52.2211 99.3698 52.313 99.5765 52.4667 99.7328C52.6204 99.8891 52.8257 99.9844 53.0443 100.001C59.056 99.853 64.7718 97.361 68.9715 93.0567C73.1711 88.7525 75.5219 82.9771 75.5219 76.9635C75.5219 70.95 73.1711 65.1746 68.9715 60.8704C64.7718 56.5662 59.056 54.0742 53.0443 53.9263V53.8984ZM46.0389 46.7481C44.9523 47.4696 43.6763 47.8533 42.372 47.8506C40.6201 47.8251 38.9483 47.113 37.7159 45.8676C36.4835 44.6222 35.7891 42.9429 35.782 41.1908C35.793 39.8865 36.19 38.6147 36.9229 37.5357C37.6559 36.4568 38.6919 35.619 39.9003 35.1282C41.1088 34.6373 42.4356 34.5153 43.7133 34.7775C44.991 35.0397 46.1624 35.6744 47.0799 36.6015C47.9973 37.5287 48.6197 38.7067 48.8685 39.9872C49.1172 41.2676 48.9813 42.593 48.4777 43.7962C47.9741 44.9994 47.1256 46.0265 46.0389 46.7481ZM45.027 37.1338C44.2411 36.6087 43.3172 36.3285 42.372 36.3285C41.1091 36.3429 39.902 36.8511 39.0089 37.7441C38.1158 38.6372 37.6077 39.8443 37.5932 41.1073C37.5932 42.0524 37.8735 42.9763 38.3986 43.7622C38.9237 44.5481 39.6701 45.1606 40.5433 45.5223C41.4165 45.884 42.3773 45.9786 43.3043 45.7942C44.2313 45.6098 45.0829 45.1547 45.7512 44.4864C46.4195 43.818 46.8747 42.9665 47.059 42.0395C47.2434 41.1125 47.1488 40.1517 46.7871 39.2785C46.4254 38.4052 45.8129 37.6589 45.027 37.1338ZM95.4686 76.024C94.6049 76.0213 93.7598 76.275 93.0405 76.7531C92.3213 77.2312 91.7602 77.9122 91.4284 78.7096C91.0966 79.507 91.009 80.385 91.1769 81.2322C91.3447 82.0794 91.7603 82.8577 92.371 83.4684C92.9817 84.0791 93.76 84.4947 94.6072 84.6626C95.4545 84.8304 96.3324 84.7429 97.1299 84.4111C97.9273 84.0793 98.6082 83.5182 99.0863 82.7989C99.5644 82.0796 99.8182 81.2346 99.8155 80.3709C99.8249 79.7975 99.7189 79.228 99.5037 78.6964C99.2886 78.1647 98.9688 77.6817 98.5632 77.2762C98.1577 76.8706 97.6748 76.5509 97.1431 76.3358C96.6115 76.1206 96.042 76.0146 95.4686 76.024ZM95.4686 82.9902C94.9389 82.993 94.4203 82.8384 93.9786 82.5462C93.5368 82.2539 93.1918 81.8371 92.9872 81.3486C92.7826 80.86 92.7277 80.3218 92.8293 79.8019C92.9309 79.2821 93.1846 78.8042 93.5581 78.4287C93.9317 78.0532 94.4083 77.797 94.9276 77.6926C95.4469 77.5883 95.9855 77.6405 96.4751 77.8425C96.9647 78.0446 97.3833 78.3874 97.6778 78.8276C97.9724 79.2678 98.1296 79.7856 98.1296 80.3152C98.1296 81.0223 97.8497 81.7006 97.351 82.2018C96.8524 82.7031 96.1756 82.9865 95.4686 82.9902ZM36.8905 25.1727C36.682 25.0334 36.4368 24.959 36.186 24.959C35.8498 24.959 35.5273 25.0926 35.2896 25.3303C35.0518 25.5681 34.9182 25.8906 34.9182 26.2269C34.9182 26.4776 34.9926 26.7227 35.1319 26.9312C35.2712 27.1397 35.4692 27.3022 35.7009 27.3982C35.9326 27.4941 36.1875 27.5193 36.4334 27.4704C36.6793 27.4215 36.9053 27.3007 37.0826 27.1233C37.2599 26.946 37.3806 26.7202 37.4295 26.4743C37.4784 26.2283 37.4534 25.9733 37.3574 25.7417C37.2614 25.51 37.099 25.312 36.8905 25.1727ZM59.0769 24.9591C59.3283 24.9563 59.5748 25.0283 59.7851 25.166C59.9954 25.3036 60.1601 25.5006 60.2582 25.732C60.3563 25.9635 60.3834 26.2188 60.3361 26.4657C60.2887 26.7125 60.1691 26.9397 59.9924 27.1184C59.8156 27.2971 59.5898 27.4193 59.3434 27.4693C59.0971 27.5194 58.8415 27.4951 58.609 27.3995C58.3765 27.304 58.1776 27.1416 58.0377 26.9328C57.8978 26.724 57.8231 26.4783 57.8231 26.227C57.8212 26.0611 57.8523 25.8966 57.9145 25.7428C57.9767 25.5891 58.0687 25.4492 58.1853 25.3313C58.302 25.2133 58.4408 25.1197 58.5938 25.0558C58.7469 24.9919 58.9111 24.9591 59.0769 24.9591ZM104.602 66.4833C104.393 66.344 104.148 66.2696 103.898 66.2696C103.73 66.2677 103.565 66.2992 103.41 66.3623C103.255 66.4253 103.115 66.5187 102.997 66.6368C102.879 66.7549 102.785 66.8954 102.722 67.05C102.659 67.2047 102.628 67.3704 102.63 67.5374C102.63 67.7882 102.704 68.0333 102.843 68.2418C102.983 68.4503 103.181 68.6128 103.412 68.7088C103.644 68.8047 103.899 68.8298 104.145 68.7809C104.391 68.732 104.617 68.6112 104.794 68.4339C104.971 68.2566 105.092 68.0307 105.141 67.7848C105.19 67.5388 105.165 67.2839 105.069 67.0523C104.973 66.8206 104.81 66.6226 104.602 66.4833ZM81.8426 76.0235C82.0939 76.0235 82.3396 76.0983 82.5484 76.2382C82.7572 76.3782 82.9197 76.5769 83.0153 76.8094C83.1108 77.0419 83.135 77.2976 83.085 77.5439C83.0349 77.7902 82.9127 78.0161 82.734 78.1928C82.5553 78.3695 82.3281 78.4892 82.0813 78.5365C81.8344 78.5839 81.5791 78.5567 81.3477 78.4586C81.1163 78.3605 80.9192 78.1959 80.7816 77.9856C80.644 77.7752 80.572 77.5288 80.5748 77.2775C80.5748 77.1116 80.6077 76.9474 80.6716 76.7944C80.7354 76.6413 80.829 76.5025 80.9469 76.3859C81.0648 76.2692 81.2047 76.1771 81.3585 76.1149C81.5122 76.0527 81.6768 76.0217 81.8426 76.0235ZM92.036 93.562C91.867 93.5071 91.6883 93.4884 91.5116 93.507C91.2001 93.5398 90.9117 93.6867 90.7021 93.9196C90.4925 94.1524 90.3765 94.4546 90.3765 94.7679C90.3765 95.0812 90.4925 95.3833 90.7021 95.6161C90.9117 95.849 91.2001 95.9959 91.5116 96.0287C91.6883 96.0473 91.867 96.0286 92.036 95.9737C92.205 95.9188 92.3605 95.829 92.4926 95.7101C92.6247 95.5912 92.7303 95.4459 92.8026 95.2836C92.8748 95.1212 92.9122 94.9456 92.9122 94.7679C92.9122 94.5902 92.8748 94.4145 92.8026 94.2521C92.7303 94.0898 92.6247 93.9445 92.4926 93.8256C92.3605 93.7067 92.205 93.6169 92.036 93.562ZM73.9707 96.168C74.2215 96.168 74.4666 96.2423 74.6751 96.3816C74.8836 96.5209 75.0461 96.7189 75.1421 96.9506C75.238 97.1822 75.2631 97.4372 75.2142 97.6832C75.1653 97.9291 75.0445 98.155 74.8672 98.3323C74.6899 98.5096 74.464 98.6304 74.2181 98.6793C73.9721 98.7282 73.7172 98.7031 73.4856 98.6072C73.2539 98.5112 73.0559 98.3486 72.9166 98.1401C72.7773 97.9316 72.7029 97.6865 72.7029 97.4358C72.7029 97.0995 72.8365 96.7771 73.0742 96.5393C73.312 96.3016 73.6344 96.168 73.9707 96.168ZM34.3687 51.5753C34.1602 51.436 33.915 51.3616 33.6642 51.3616C33.4972 51.3598 33.3315 51.3913 33.1769 51.4543C33.0222 51.5174 32.8817 51.6107 32.7636 51.7288C32.6455 51.8469 32.5522 51.9874 32.4891 52.1421C32.426 52.2968 32.3945 52.4625 32.3964 52.6295C32.3964 52.8803 32.4708 53.1254 32.6101 53.3339C32.7494 53.5424 32.9474 53.7049 33.1791 53.8008C33.4108 53.8968 33.6657 53.9219 33.9116 53.873C34.1575 53.8241 34.3835 53.7033 34.5608 53.526C34.7381 53.3487 34.8588 53.1227 34.9077 52.8768C34.9566 52.6309 34.9316 52.376 34.8356 52.1443C34.7396 51.9126 34.5772 51.7146 34.3687 51.5753Z" fill="url(#paint0_linear_66_173)"/>
</g>
<defs>
<filter id="filter0_d_66_173" x="0" y="0" width="140.07" height="140.001" filterUnits="userSpaceOnUse" color-interpolation-filters="sRGB">
<feFlood flood-opacity="0" result="BackgroundImageFix"/>
<feColorMatrix in="SourceAlpha" type="matrix" values="0 0 0 0 0 0 0 0 0 0 0 0 0 0 0 0 0 0 127 0" result="hardAlpha"/>
<feOffset dy="10"/>
<feGaussianBlur stdDeviation="15"/>
<feComposite in2="hardAlpha" operator="out"/>
<feColorMatrix type="matrix" values="0 0 0 0 0.368627 0 0 0 0 0.494118 0 0 0 0 1 0 0 0 0.4 0"/>
<feBlend mode="normal" in2="BackgroundImageFix" result="effect1_dropShadow_66_173"/>
<feBlend mode="normal" in="SourceGraphic" in2="effect1_dropShadow_66_173" result="shape"/>
</filter>
<linearGradient id="paint0_linear_66_173" x1="121.359" y1="-96.6678" x2="49.6585" y2="-103.416" gradientUnits="userSpaceOnUse">
<stop stop-color="#3ED3B5"/>
<stop offset="1" stop-color="#5F78FF"/>
</linearGradient>
</defs>
</svg>
