<svg width="137" height="140" viewBox="0 0 137 140" fill="none" xmlns="http://www.w3.org/2000/svg">
<g filter="url(#filter0_d_66_151)">
<path fill-rule="evenodd" clip-rule="evenodd" d="M99.4191 45.5737C99.2665 45.7263 99.0643 45.819 98.8492 45.835H94.6933V59.4109C94.6773 59.626 94.5846 59.8283 94.432 59.9808C94.2795 60.1333 94.0772 60.2261 93.8621 60.2421H86.6586C86.4435 60.2261 86.2412 60.1333 86.0887 59.9808C85.9361 59.8283 85.8434 59.626 85.8274 59.4109V53.3156H78.3469V63.7053C78.3308 63.9204 78.2381 64.1227 78.0856 64.2752C77.933 64.4278 77.7308 64.5205 77.5156 64.5365H70.3121C70.0969 64.5205 69.8947 64.4278 69.7422 64.2752C69.5896 64.1227 69.4969 63.9204 69.4809 63.7053V50.1294H65.4635C65.287 50.1243 65.1155 50.0696 64.9685 49.9716C64.8215 49.8736 64.7051 49.7363 64.6324 49.5753C64.4939 49.1597 64.6324 48.8826 65.048 48.6056L73.4983 41.125C73.652 40.9915 73.8488 40.9179 74.0524 40.9179C74.256 40.9179 74.4528 40.9915 74.6065 41.125L76.823 43.0644V32.5362H70.7277C70.5512 32.531 70.3796 32.4763 70.2326 32.3784C70.0856 32.2804 69.9692 32.1431 69.8965 31.982C69.8345 31.8118 69.828 31.6264 69.8777 31.4522C69.9275 31.2781 70.031 31.1241 70.1736 31.0123L82.3642 20.207C82.5179 20.0735 82.7147 20 82.9183 20C83.1219 20 83.3186 20.0735 83.4724 20.207L95.5245 31.0123C95.6982 31.2017 95.7968 31.448 95.8015 31.705C95.7855 31.9201 95.6928 32.1224 95.5403 32.2749C95.3877 32.4274 95.1855 32.5202 94.9704 32.5362H88.8751V37.5232L89.8448 36.692C89.9985 36.5585 90.1952 36.485 90.3988 36.485C90.6025 36.485 90.7993 36.5585 90.953 36.692L99.4033 44.3112C99.5771 44.5005 99.6756 44.7469 99.6803 45.0038C99.6643 45.2189 99.5716 45.4212 99.4191 45.5737ZM96.6327 44.0341L90.3988 38.4929L84.3036 44.0341H96.6327ZM92.6154 30.7353L82.7797 22.0079L72.9442 30.7353H92.6154ZM80.1477 48.467L73.9139 42.9259L67.8186 48.467H80.1477ZM71.1433 62.8741H76.6845V50.1294H71.1433V62.8741ZM78.4853 50.1294V51.6532H85.966V45.835H81.9486C81.7665 45.8582 81.5822 45.815 81.4295 45.7132C81.2768 45.6114 81.166 45.4579 81.1174 45.2809C81.0555 45.1107 81.0488 44.9252 81.0986 44.7511C81.1483 44.5769 81.2519 44.4229 81.3944 44.3112L87.2127 39.1856V32.5362H78.4853V44.5882L82.9183 48.6056C83.0921 48.7949 83.1907 49.0413 83.1954 49.2982C83.1794 49.5134 83.0867 49.7156 82.9341 49.8682C82.7816 50.0207 82.5793 50.1134 82.3642 50.1294H78.4853ZM87.6283 58.5797H93.1694V45.835H87.6283V58.5797ZM66.4332 21.3164C66.6798 21.3164 66.9209 21.3895 67.1259 21.5265C67.3309 21.6635 67.4907 21.8582 67.5851 22.0861C67.6795 22.3139 67.7041 22.5646 67.656 22.8064C67.6079 23.0483 67.4892 23.2704 67.3149 23.4448C67.1405 23.6191 66.9183 23.7379 66.6765 23.786C66.4346 23.8341 66.1839 23.8094 65.9561 23.715C65.7283 23.6207 65.5336 23.4609 65.3966 23.2558C65.2596 23.0508 65.1865 22.8098 65.1865 22.5632C65.1865 22.2325 65.3178 21.9154 65.5516 21.6816C65.7854 21.4478 66.1026 21.3164 66.4332 21.3164ZM106.053 24.1574C105.848 24.0204 105.607 23.9473 105.36 23.9473C105.029 23.9473 104.712 24.0786 104.478 24.3124C104.245 24.5462 104.113 24.8634 104.113 25.194C104.113 25.4406 104.186 25.6817 104.323 25.8867C104.46 26.0917 104.655 26.2515 104.883 26.3459C105.111 26.4403 105.361 26.4649 105.603 26.4168C105.845 26.3687 106.067 26.25 106.242 26.0756C106.416 25.9013 106.535 25.6791 106.583 25.4373C106.631 25.1954 106.606 24.9447 106.512 24.7169C106.418 24.4891 106.258 24.2944 106.053 24.1574ZM105.221 61.4213C105.016 61.2843 104.775 61.2112 104.529 61.2112C104.198 61.2112 103.881 61.3425 103.647 61.5763C103.413 61.8101 103.282 62.1273 103.282 62.4579C103.282 62.7045 103.355 62.9456 103.492 63.1506C103.629 63.3556 103.824 63.5154 104.052 63.6098C104.28 63.7041 104.53 63.7288 104.772 63.6807C105.014 63.6326 105.236 63.5139 105.41 63.3395C105.585 63.1651 105.704 62.943 105.752 62.7011C105.8 62.4593 105.775 62.2086 105.681 61.9808C105.586 61.753 105.427 61.5583 105.221 61.4213ZM89.0134 93.2109C89.26 93.2109 89.5011 93.2841 89.7062 93.4211C89.9112 93.5581 90.071 93.7528 90.1654 93.9806C90.2597 94.2084 90.2844 94.4591 90.2363 94.7009C90.1882 94.9428 90.0694 95.1649 89.8951 95.3393C89.7207 95.5137 89.4985 95.6324 89.2567 95.6805C89.0148 95.7286 88.7642 95.7039 88.5364 95.6096C88.3086 95.5152 88.1138 95.3554 87.9768 95.1504C87.8398 94.9453 87.7667 94.7043 87.7667 94.4577C87.7667 94.294 87.7989 94.1319 87.8616 93.9806C87.9242 93.8293 88.0161 93.6919 88.1319 93.5761C88.2477 93.4603 88.3851 93.3685 88.5364 93.3058C88.6877 93.2432 88.8497 93.2109 89.0134 93.2109ZM35.2641 94.0429C35.5107 94.0429 35.7517 94.116 35.9567 94.253C36.1618 94.39 36.3216 94.5848 36.4159 94.8126C36.5103 95.0404 36.535 95.2911 36.4869 95.5329C36.4388 95.7748 36.3201 95.9969 36.1457 96.1713C35.9714 96.3456 35.7492 96.4644 35.5074 96.5125C35.2655 96.5606 35.0148 96.5359 34.787 96.4415C34.5592 96.3472 34.3645 96.1874 34.2275 95.9824C34.0905 95.7773 34.0174 95.5363 34.0174 95.2897C34.0174 94.959 34.1487 94.6419 34.3825 94.4081C34.6163 94.1743 34.9334 94.0429 35.2641 94.0429ZM99.4031 72.4336C99.6497 72.4336 99.8908 72.5067 100.096 72.6437C100.301 72.7807 100.461 72.9754 100.555 73.2032C100.649 73.4311 100.674 73.6817 100.626 73.9236C100.578 74.1654 100.459 74.3876 100.285 74.562C100.11 74.7363 99.8882 74.8551 99.6463 74.9032C99.4045 74.9513 99.1539 74.9266 98.926 74.8322C98.6982 74.7379 98.5035 74.5781 98.3665 74.373C98.2295 74.168 98.1564 73.9269 98.1564 73.6804C98.1564 73.5166 98.1886 73.3545 98.2512 73.2032C98.3139 73.052 98.4058 72.9145 98.5216 72.7988C98.6373 72.683 98.7748 72.5912 98.926 72.5285C99.0773 72.4658 99.2394 72.4336 99.4031 72.4336ZM100.096 34.5461C99.8908 34.4091 99.6497 34.3359 99.4031 34.3359C99.0724 34.3359 98.7554 34.4673 98.5216 34.7011C98.2877 34.9349 98.1564 35.252 98.1564 35.5827C98.1564 35.8293 98.2295 36.0703 98.3665 36.2754C98.5035 36.4804 98.6982 36.6402 98.926 36.7346C99.1539 36.8289 99.4045 36.8536 99.6463 36.8055C99.8882 36.7574 100.11 36.6387 100.285 36.4643C100.459 36.2899 100.578 36.0678 100.626 35.8259C100.674 35.5841 100.649 35.3334 100.555 35.1056C100.461 34.8778 100.301 34.6831 100.096 34.5461ZM51.7492 30.043C51.9958 30.043 52.2369 30.1161 52.4419 30.2531C52.6469 30.3901 52.8067 30.5848 52.9011 30.8126C52.9955 31.0404 53.0201 31.2911 52.972 31.533C52.9239 31.7748 52.8052 31.997 52.6309 32.1713C52.4565 32.3457 52.2343 32.4644 51.9925 32.5125C51.7506 32.5606 51.4999 32.536 51.2721 32.4416C51.0443 32.3472 50.8495 32.1874 50.7126 31.9824C50.5756 31.7774 50.5024 31.5363 50.5024 31.2897C50.5024 31.126 50.5347 30.9639 50.5974 30.8126C50.66 30.6613 50.7518 30.5239 50.8676 30.4081C50.9834 30.2924 51.1209 30.2005 51.2721 30.1379C51.4234 30.0752 51.5855 30.043 51.7492 30.043ZM34.2944 41.4739C34.0893 41.3369 33.8482 41.2637 33.6016 41.2637C33.4379 41.2637 33.2759 41.296 33.1246 41.3586C32.9733 41.4213 32.8359 41.5131 32.7201 41.6289C32.6043 41.7447 32.5125 41.8821 32.4498 42.0334C32.3871 42.1846 32.3549 42.3468 32.3549 42.5105C32.3549 42.7571 32.428 42.9981 32.565 43.2032C32.702 43.4082 32.8968 43.568 33.1246 43.6624C33.3524 43.7567 33.6031 43.7814 33.8449 43.7333C34.0868 43.6852 34.3089 43.5665 34.4833 43.3921C34.6576 43.2177 34.7764 42.9956 34.8245 42.7537C34.8726 42.5119 34.8479 42.2612 34.7536 42.0334C34.6592 41.8056 34.4994 41.6108 34.2944 41.4739ZM92.1998 67.3063H62.5544V37.3839C62.5384 37.1688 62.4457 36.9665 62.2932 36.814C62.1406 36.6614 61.9384 36.5687 61.7233 36.5527C53.321 36.5892 45.2732 39.9432 39.3318 45.8845C33.3904 51.8259 30.0365 59.8737 30 68.276C30 76.6895 33.3423 84.7584 39.2916 90.7077C45.2408 96.657 53.3098 99.9992 61.7233 99.9992C65.9318 99.9762 70.0941 99.1197 73.9697 97.4791C77.8454 95.8385 81.3576 93.4463 84.3036 90.4407C84.5511 90.3318 84.7488 90.1341 84.8576 89.8866C90.2805 84.0504 93.2987 76.3812 93.308 68.4145C93.3098 68.2685 93.2824 68.1235 93.2274 67.9882C93.1724 67.8529 93.0908 67.73 92.9875 67.6267C92.8842 67.5234 92.7613 67.4419 92.626 67.3868C92.4907 67.3318 92.3458 67.3044 92.1998 67.3063ZM83.888 88.2242C81.7351 86.1528 79.312 84.382 76.6844 82.9601C77.8526 78.4777 78.5033 73.8762 78.6238 69.2457H91.5071C91.2531 76.2657 88.5586 82.9773 83.888 88.2242ZM76.8229 69.1072C76.783 73.498 76.225 77.8688 75.1606 82.1289C71.1977 80.3191 66.9097 79.3296 62.5544 79.2198V69.2457L76.8229 69.1072ZM39.42 88.2242C34.6684 82.9727 31.9641 76.1874 31.8009 69.1072H44.6841C44.7462 73.7879 45.3978 78.4422 46.6235 82.9601C43.996 84.382 41.5729 86.1528 39.42 88.2242ZM39.42 48.1892C41.5464 50.292 43.9742 52.0662 46.6235 53.4533C45.3978 57.9712 44.7462 62.6255 44.6841 67.3063H31.8009C31.9641 60.2261 34.6684 53.4407 39.42 48.1892ZM50.7794 47.358C53.4115 41.9554 57.0133 38.7692 60.7536 38.3536V55.6698C56.5339 55.5436 52.3849 54.5535 48.563 52.7607C49.1432 50.8988 49.8849 49.091 50.7794 47.358ZM46.3465 69.1072H60.7536V79.0813C56.3802 79.1709 52.0786 80.2108 48.1473 82.1289C47.0355 77.8746 46.4311 73.5036 46.3465 69.1072ZM60.7536 80.8822V98.1983C57.1518 97.7828 53.6885 94.8736 50.9179 89.748C49.9671 87.8799 49.1793 85.9333 48.563 83.9298C52.353 82.0299 56.5154 80.9893 60.7536 80.8822ZM62.5544 80.8822C66.7318 80.9924 70.8388 81.9837 74.6065 83.7913C73.9544 85.7819 73.1676 87.7258 72.2515 89.6095C69.6194 94.7351 66.1562 97.6442 62.5544 98.0598V80.8822ZM46.3465 67.3063C46.3625 62.9047 46.9681 58.5252 48.1473 54.2845C52.0842 56.187 56.3823 57.2261 60.7536 57.3322V67.3063H46.3465ZM47.0391 51.791C44.671 50.459 42.4829 48.8296 40.5282 46.9424C44.4871 43.0008 49.4828 40.2628 54.9353 39.0463C51.195 42.0939 48.5629 47.2195 47.0391 51.791ZM40.6668 89.471C42.5851 87.5414 44.7794 85.9074 47.1777 84.6225C48.7015 89.3325 51.195 94.458 55.0738 97.5057C49.6324 96.1816 44.6529 93.4045 40.6668 89.471ZM76.1303 84.4839C78.5286 85.7689 80.7229 87.4029 82.6412 89.3325C78.6551 93.266 73.6755 96.043 68.2341 97.3672C72.1129 94.3195 74.6065 89.1939 76.1303 84.4839ZM43.8684 36.9125C43.0027 37.4909 41.985 37.7997 40.9439 37.7997C39.5477 37.7997 38.2088 37.2451 37.2216 36.2579C36.2343 35.2707 35.6797 33.9317 35.6797 32.5356C35.6797 31.4944 35.9884 30.4767 36.5669 29.611C37.1453 28.7453 37.9674 28.0706 38.9293 27.6722C39.8912 27.2737 40.9497 27.1695 41.9708 27.3726C42.992 27.5757 43.93 28.0771 44.6662 28.8133C45.4024 29.5495 45.9037 30.4874 46.1068 31.5086C46.31 32.5297 46.2057 33.5882 45.8073 34.5501C45.4088 35.512 44.7341 36.3341 43.8684 36.9125ZM42.8679 29.656C42.2984 29.2754 41.6288 29.0723 40.9439 29.0723C40.488 29.0686 40.036 29.1557 39.6141 29.3284C39.1923 29.5012 38.809 29.7561 38.4867 30.0785C38.1644 30.4008 37.9095 30.784 37.7367 31.2059C37.564 31.6277 37.4769 32.0797 37.4806 32.5356C37.4806 33.2205 37.6837 33.8901 38.0643 34.4596C38.4448 35.0292 38.9857 35.4731 39.6185 35.7352C40.2513 35.9973 40.9476 36.0659 41.6194 35.9323C42.2912 35.7986 42.9084 35.4688 43.3927 34.9844C43.8771 34.5001 44.2069 33.883 44.3406 33.2112C44.4742 32.5394 44.4056 31.8431 44.1435 31.2102C43.8813 30.5774 43.4374 30.0365 42.8679 29.656ZM100.234 84.4844C99.2057 84.4844 98.219 84.893 97.4916 85.6205C96.7642 86.3479 96.3556 87.3345 96.3556 88.3632C96.3556 89.3919 96.7642 90.3785 97.4916 91.1059C98.219 91.8334 99.2057 92.242 100.234 92.242C101.263 92.242 102.25 91.8334 102.977 91.1059C103.705 90.3785 104.113 89.3919 104.113 88.3632C104.113 87.3345 103.705 86.3479 102.977 85.6205C102.25 84.893 101.263 84.4844 100.234 84.4844ZM100.234 90.5797C99.796 90.5797 99.3675 90.4497 99.003 90.2061C98.6385 89.9626 98.3544 89.6164 98.1866 89.2114C98.0189 88.8064 97.975 88.3607 98.0605 87.9308C98.146 87.5008 98.3571 87.1059 98.6671 86.7959C98.977 86.4859 99.372 86.2748 99.802 86.1893C100.232 86.1038 100.678 86.1477 101.083 86.3154C101.488 86.4832 101.834 86.7673 102.077 87.1318C102.321 87.4963 102.451 87.9248 102.451 88.3632C102.437 88.9466 102.199 89.5023 101.786 89.9149C101.373 90.3276 100.818 90.5656 100.234 90.5797Z" fill="url(#paint0_linear_66_151)"/>
</g>
<defs>
<filter id="filter0_d_66_151" x="0" y="0" width="136.607" height="139.999" filterUnits="userSpaceOnUse" color-interpolation-filters="sRGB">
<feFlood flood-opacity="0" result="BackgroundImageFix"/>
<feColorMatrix in="SourceAlpha" type="matrix" values="0 0 0 0 0 0 0 0 0 0 0 0 0 0 0 0 0 0 127 0" result="hardAlpha"/>
<feOffset dy="10"/>
<feGaussianBlur stdDeviation="15"/>
<feComposite in2="hardAlpha" operator="out"/>
<feColorMatrix type="matrix" values="0 0 0 0 0.368627 0 0 0 0 0.494118 0 0 0 0 1 0 0 0 0.4 0"/>
<feBlend mode="normal" in2="BackgroundImageFix" result="effect1_dropShadow_66_151"/>
<feBlend mode="normal" in="SourceGraphic" in2="effect1_dropShadow_66_151" result="shape"/>
</filter>
<linearGradient id="paint0_linear_66_151" x1="117.408" y1="-96.6655" x2="48.7573" y2="-102.847" gradientUnits="userSpaceOnUse">
<stop stop-color="#3ED3B5"/>
<stop offset="1" stop-color="#5F78FF"/>
</linearGradient>
</defs>
</svg>
