<svg width="579" height="475" viewBox="0 0 579 475" fill="none" xmlns="http://www.w3.org/2000/svg">
<g opacity="0.3">
<path fill-rule="evenodd" clip-rule="evenodd" d="M415.202 2H136.891L124.812 23.1376L150.983 71.452L165.074 47.2948H385.509L496.733 238.036H550.08L415.202 2ZM360.345 91.082L497.739 329.131H443.889L333.168 137.887H245.095L373.933 361.341L360.345 385.498H191.245L51.8373 146.946H107.198L217.918 337.687H305.488L176.65 115.743L191.245 91.082H360.345ZM55.3603 238.539L164.571 428.777H386.012L399.601 406.13L426.777 453.438L414.196 474.072H136.388L0 238.539H55.3603Z" fill="url(#paint0_linear_66_205)"/>
<path d="M164.891 1V0.5H164.601L164.457 0.75193L164.891 1ZM443.202 1L443.636 0.751931L443.492 0.5H443.202V1ZM152.812 22.1376L152.378 21.8895L152.24 22.1311L152.373 22.3757L152.812 22.1376ZM178.983 70.452L178.543 70.6901L178.966 71.472L179.414 70.7039L178.983 70.452ZM193.074 46.2948V45.7948H192.787L192.642 46.0428L193.074 46.2948ZM413.509 46.2948L413.941 46.0429L413.796 45.7948H413.509V46.2948ZM524.733 237.036L524.301 237.288L524.445 237.536H524.733V237.036ZM578.08 237.036V237.536H578.941L578.514 236.788L578.08 237.036ZM525.739 328.131V328.631H526.605L526.172 327.881L525.739 328.131ZM388.345 90.082L388.778 89.8321L388.634 89.582H388.345V90.082ZM471.889 328.131L471.456 328.382L471.6 328.631H471.889V328.131ZM361.168 136.887L361.601 136.636L361.456 136.387H361.168V136.887ZM273.095 136.887V136.387H272.23L272.662 137.136L273.095 136.887ZM401.933 360.341L402.369 360.586L402.509 360.338L402.367 360.091L401.933 360.341ZM388.345 384.498V384.998H388.637L388.781 384.743L388.345 384.498ZM219.245 384.498L218.813 384.75L218.958 384.998H219.245V384.498ZM79.8373 145.946V145.446H78.966L79.4056 146.198L79.8373 145.946ZM135.198 145.946L135.63 145.695L135.485 145.446H135.198V145.946ZM245.918 336.687L245.486 336.938L245.63 337.187H245.918V336.687ZM333.488 336.687V337.187H334.356L333.92 336.436L333.488 336.687ZM204.65 114.743L204.219 114.488L204.07 114.74L204.217 114.994L204.65 114.743ZM219.245 90.082V89.582H218.959L218.814 89.8274L219.245 90.082ZM192.571 427.777L192.137 428.026L192.282 428.277H192.571V427.777ZM83.3603 237.539L83.7939 237.29L83.6498 237.039H83.3603V237.539ZM414.012 427.777V428.277H414.295L414.441 428.034L414.012 427.777ZM427.601 405.13L428.034 404.881L427.61 404.142L427.172 404.873L427.601 405.13ZM454.777 452.438L455.204 452.698L455.358 452.445L455.211 452.189L454.777 452.438ZM442.196 473.072V473.572H442.476L442.622 473.332L442.196 473.072ZM164.388 473.072L163.955 473.322L164.099 473.572H164.388V473.072ZM28 237.539V237.039H27.1327L27.5673 237.79L28 237.539ZM164.891 1.5H443.202V0.5H164.891V1.5ZM153.246 22.3856L165.325 1.24807L164.457 0.75193L152.378 21.8895L153.246 22.3856ZM179.422 70.2139L153.252 21.8994L152.373 22.3757L178.543 70.6901L179.422 70.2139ZM192.642 46.0428L178.551 70.2001L179.414 70.7039L193.506 46.5467L192.642 46.0428ZM413.509 45.7948H193.074V46.7948H413.509V45.7948ZM525.165 236.784L413.941 46.0429L413.077 46.5466L524.301 237.288L525.165 236.784ZM578.08 236.536H524.733V237.536H578.08V236.536ZM442.768 1.24807L577.646 237.284L578.514 236.788L443.636 0.751931L442.768 1.24807ZM526.172 327.881L388.778 89.8321L387.912 90.332L525.306 328.381L526.172 327.881ZM471.889 328.631H525.739V327.631H471.889V328.631ZM360.735 137.137L471.456 328.382L472.321 327.881L361.601 136.636L360.735 137.137ZM273.095 137.387H361.168V136.387H273.095V137.387ZM402.367 360.091L273.528 136.637L272.662 137.136L401.5 360.591L402.367 360.091ZM388.781 384.743L402.369 360.586L401.498 360.096L387.909 384.253L388.781 384.743ZM219.245 384.998H388.345V383.998H219.245V384.998ZM79.4056 146.198L218.813 384.75L219.676 384.246L80.269 145.693L79.4056 146.198ZM135.198 145.446H79.8373V146.446H135.198V145.446ZM246.351 336.436L135.63 145.695L134.765 146.197L245.486 336.938L246.351 336.436ZM333.488 336.187H245.918V337.187H333.488V336.187ZM204.217 114.994L333.056 336.938L333.92 336.436L205.082 114.492L204.217 114.994ZM218.814 89.8274L204.219 114.488L205.08 114.997L219.675 90.3367L218.814 89.8274ZM388.345 89.582H219.245V90.582H388.345V89.582ZM193.005 427.528L83.7939 237.29L82.9267 237.788L192.137 428.026L193.005 427.528ZM414.012 427.277H192.571V428.277H414.012V427.277ZM427.172 404.873L413.583 427.52L414.441 428.034L428.029 405.387L427.172 404.873ZM455.211 452.189L428.034 404.881L427.167 405.379L454.344 452.687L455.211 452.189ZM442.622 473.332L455.204 452.698L454.351 452.177L441.769 472.812L442.622 473.332ZM164.388 473.572H442.196V472.572H164.388V473.572ZM27.5673 237.79L163.955 473.322L164.82 472.821L28.4327 237.289L27.5673 237.79ZM83.3603 237.039H28V238.039H83.3603V237.039Z" fill="url(#paint1_linear_66_205)" fill-opacity="0.5"/>
</g>
<defs>
<linearGradient id="paint0_linear_66_205" x1="346" y1="38.0001" x2="215.48" y2="13.2205" gradientUnits="userSpaceOnUse">
<stop stop-color="#3ED3B5" stop-opacity="0.7"/>
<stop offset="1" stop-color="#06A7C9" stop-opacity="0.3"/>
</linearGradient>
<linearGradient id="paint1_linear_66_205" x1="412.079" y1="-21.1441" x2="151.094" y2="252.415" gradientUnits="userSpaceOnUse">
<stop stop-color="#40D0B8"/>
<stop offset="1" stop-color="#5E7DFC"/>
</linearGradient>
</defs>
</svg>
