<svg width="142" height="140" viewBox="0 0 142 140" fill="none" xmlns="http://www.w3.org/2000/svg">
<g filter="url(#filter0_d_66_128)">
<path fill-rule="evenodd" clip-rule="evenodd" d="M89.1423 20.2289C88.9198 20.0797 88.6579 20.0001 88.39 20.0001C88.2133 19.9981 88.0379 20.0312 87.874 20.0975C87.7102 20.1638 87.5611 20.2619 87.4354 20.3862C87.3097 20.5105 87.2099 20.6586 87.1418 20.8217C87.0737 20.9848 87.0387 21.1598 87.0387 21.3366C87.0357 21.6045 87.1125 21.8672 87.2592 22.0914C87.4059 22.3155 87.6159 22.491 87.8625 22.5956C88.1092 22.7001 88.3813 22.729 88.6445 22.6786C88.9076 22.6281 89.1497 22.5006 89.3402 22.3122C89.5307 22.1238 89.6609 21.8831 89.7142 21.6206C89.7676 21.358 89.7417 21.0855 89.6399 20.8377C89.5381 20.59 89.3649 20.378 89.1423 20.2289ZM76.9766 26.2062L76.9769 26.2064C78.8328 28.0772 82.5453 31.8194 90.3354 39.6021L106.656 55.6252C108.24 57.217 109.129 59.3714 109.129 61.6172C109.129 63.863 108.24 66.0173 106.656 67.6091L76.7328 97.5466C75.3698 98.8825 73.6005 99.7261 71.7045 99.9439C69.8086 100.162 67.894 99.7414 66.2636 98.7495C65.9522 98.6411 65.6858 98.4321 65.5063 98.1555C65.4284 98.1041 65.3638 98.0624 65.3003 98.0189C64.8688 97.7237 64.4919 97.3486 60.4097 93.2859L60.4095 93.2857L60.4093 93.2855L60.4091 93.2853L60.4083 93.2845C57.986 90.8737 54.2595 87.1649 48.4436 81.4047L33.5937 66.5548C32.0104 64.9655 31.1214 62.8136 31.1214 60.5703C31.1214 58.3269 32.0104 56.1749 33.5937 54.5857L63.5312 24.6333C64.8997 23.3009 66.6722 22.4611 68.57 22.246C70.4679 22.031 72.3834 22.4529 74.0153 23.4453C74.3212 23.5566 74.5821 23.7652 74.7578 24.0393C75.1215 24.3362 75.1216 24.3363 76.9762 26.2058L76.9763 26.2059L76.9765 26.206L76.9766 26.2061L76.9766 26.2062ZM68.3877 24.2142C67.0641 24.4551 65.8432 25.0873 64.8826 26.0292L51.0424 39.9436L55.9874 44.8738C56.5882 44.0027 57.3732 43.2744 58.2868 42.7404C59.2004 42.2064 60.2202 41.8799 61.274 41.7839C62.3279 41.6879 63.3899 41.8248 64.3849 42.185C65.38 42.5451 66.2836 43.1197 67.0319 43.8679C67.7801 44.6162 68.3547 45.5199 68.7148 46.5149C69.075 47.5099 69.2119 48.572 69.116 49.6258C69.02 50.6797 68.6934 51.6995 68.1594 52.6131C67.6255 53.5266 66.8971 54.3116 66.026 54.9124L69.9167 58.8031C74.8617 53.7096 74.8617 53.7096 75.0102 53.7096C75.1338 53.6386 75.2724 53.5977 75.4147 53.5904C75.557 53.583 75.699 53.6095 75.8293 53.6673C75.9595 53.7252 76.0742 53.8129 76.1641 53.9235C76.254 54.034 76.3166 54.1642 76.3467 54.3035C76.6161 55.1505 77.0787 55.9233 77.6981 56.5607C78.7327 57.5478 80.1154 58.0861 81.5451 58.0583C82.9748 58.0304 84.3355 57.4389 85.331 56.4123C85.854 55.9265 86.2739 55.3404 86.5656 54.6888C86.8573 54.0373 87.0147 53.3337 87.0286 52.6199C87.0424 51.9062 86.9124 51.1969 86.6463 50.5346C86.3801 49.8722 85.9833 49.2702 85.4795 48.7645C84.8488 48.1472 84.0801 47.689 83.2371 47.428C83.0834 47.393 82.9418 47.3178 82.8267 47.2102C82.7115 47.1025 82.627 46.9663 82.5817 46.8154C82.5364 46.6644 82.532 46.5041 82.5688 46.3509C82.6057 46.1976 82.6826 46.0568 82.7916 45.943L88.4792 40.2555L73.9559 25.7322L62.5808 37.1073C62.4016 37.2865 62.1586 37.3871 61.9051 37.3871C61.6517 37.3871 61.4087 37.2865 61.2295 37.1073C61.0503 36.9281 60.9496 36.685 60.9496 36.4316C60.9496 36.1782 61.0503 35.9351 61.2295 35.7559L72.3075 24.6779C71.0767 24.1349 69.7113 23.9733 68.3877 24.2142ZM49.6168 41.2504L34.945 55.9222C34.3295 56.5347 33.8414 57.263 33.5088 58.0651C33.1761 58.8672 33.0056 59.7273 33.007 60.5956C33.0083 61.464 33.1816 62.3235 33.5168 63.1245C33.852 63.9255 34.3424 64.6522 34.9599 65.2628L49.1713 79.4891L54.547 74.1283C53.3715 73.3265 52.4598 72.1944 51.9271 70.8751C51.3943 69.5557 51.2643 68.1081 51.5534 66.7149C51.8425 65.3217 52.5378 64.0453 53.5516 63.0469C54.5654 62.0485 55.8522 61.3727 57.2497 61.1048C58.6291 60.8156 60.0635 60.9436 61.3699 61.4726C62.6764 62.0015 63.7958 62.9074 64.5856 64.0748L68.4762 60.1841L63.7243 55.3133C63.624 55.2048 63.5509 55.0741 63.5109 54.9319C63.4709 54.7897 63.4652 54.64 63.4942 54.4951C63.5231 54.3503 63.586 54.2143 63.6776 54.0984C63.7692 53.9825 63.887 53.8899 64.0213 53.8283C64.8165 53.477 65.5137 52.9366 66.0522 52.2541C66.5907 51.5716 66.9541 50.7678 67.1108 49.9127C67.2675 49.0576 67.2126 48.1771 66.9511 47.348C66.6895 46.519 66.2292 45.7664 65.6102 45.156C65.1095 44.654 64.5146 44.2557 63.8597 43.984C63.2049 43.7122 62.5028 43.5724 61.7938 43.5724C61.0847 43.5724 60.3827 43.7122 59.7278 43.984C59.0729 44.2557 58.4781 44.654 57.9773 45.156C57.5788 45.6656 57.2306 46.2126 56.9378 46.7894C56.8777 46.9249 56.7862 47.0441 56.671 47.1372C56.5558 47.2304 56.4201 47.2948 56.2751 47.3253C56.1301 47.3557 55.9799 47.3513 55.837 47.3123C55.694 47.2734 55.5624 47.2011 55.4528 47.1013L49.6168 41.2504ZM71.8632 98.0195C73.1881 97.7783 74.4093 97.1425 75.3666 96.1953L89.8751 81.3602L83.7272 75.2272C83.1278 76.1022 82.343 76.8345 81.4286 77.3717C80.5141 77.909 79.4924 78.2381 78.4363 78.3356C77.3802 78.4331 76.3155 78.2966 75.3181 77.9359C74.3208 77.5751 73.4151 76.9991 72.6657 76.2486C71.9163 75.498 71.3415 74.5915 70.9823 73.5936C70.623 72.5957 70.4881 71.5309 70.5872 70.4749C70.6863 69.4189 71.0169 68.3977 71.5555 67.4841C72.0941 66.5704 72.8275 65.7866 73.7034 65.1886L69.8127 61.2979L65.0162 66.0944C64.9077 66.1946 64.777 66.2678 64.6347 66.3078C64.4925 66.3478 64.3429 66.3535 64.198 66.3245C64.0531 66.2956 63.9172 66.2327 63.8013 66.1411C63.6854 66.0495 63.5928 65.9317 63.5312 65.7975C63.04 64.7135 62.1946 63.8289 61.134 63.2891C60.0734 62.7493 58.8606 62.5865 57.6952 62.8275C56.4373 63.0952 55.3137 63.7966 54.5209 64.8093C53.7282 65.8219 53.3169 67.0812 53.359 68.3665C53.4206 69.3499 53.7435 70.2991 54.2943 71.1161C54.8451 71.9332 55.6038 72.5885 56.4923 73.0145C56.6277 73.0747 56.7469 73.1661 56.8401 73.2813C56.9332 73.3965 56.9977 73.5323 57.0281 73.6773C57.0586 73.8223 57.0541 73.9724 57.0152 74.1153C56.9763 74.2583 56.9039 74.39 56.8042 74.4995L50.6563 80.6326L66.4418 96.3587L78.8712 83.9292C79.064 83.7846 79.2985 83.7065 79.5395 83.7065C79.7805 83.7065 80.0149 83.7846 80.2077 83.9292C80.3596 84.1189 80.4423 84.3546 80.4423 84.5975C80.4423 84.8404 80.3596 85.0761 80.2077 85.2658L67.9416 97.5466C69.1713 98.0958 70.5382 98.2606 71.8632 98.0195ZM91.2264 80.3356L105.156 66.4063C105.794 65.8163 106.305 65.1009 106.655 64.3049C107.005 63.5088 107.187 62.6491 107.189 61.7795C107.192 60.91 107.016 60.0492 106.671 59.2509C106.326 58.4527 105.82 57.734 105.185 57.1399L89.7711 41.7256L85.1231 46.3588C86.1016 46.9166 86.9373 47.6938 87.5644 48.6295C88.1915 49.5651 88.5928 50.6335 88.7368 51.7506C88.8807 52.8677 88.7634 54.003 88.394 55.0671C88.0246 56.1311 87.4133 57.0948 86.6081 57.8824C85.8296 58.7052 84.8676 59.3324 83.8007 59.7127C82.7337 60.0931 81.592 60.2159 80.4685 60.0711C79.3451 59.9263 78.2718 59.5181 77.3361 58.8797C76.4005 58.2413 75.6289 57.3907 75.0845 56.3974L71.1789 60.2881L75.9755 65.0698C76.0757 65.1783 76.1488 65.309 76.1888 65.4512C76.2288 65.5935 76.2346 65.7432 76.2056 65.888C76.1766 66.0329 76.1138 66.1688 76.0221 66.2847C75.9305 66.4006 75.8127 66.4931 75.6785 66.5548C74.8812 66.9047 74.1812 67.4435 73.639 68.1247C73.0967 68.8058 72.7285 69.6088 72.5662 70.4642C72.4039 71.3196 72.4524 72.2017 72.7074 73.0341C72.9625 73.8666 73.4165 74.6244 74.0301 75.242C74.6623 75.8238 75.4218 76.2497 76.2479 76.4857C77.074 76.7216 77.9439 76.761 78.788 76.6009C79.6321 76.4407 80.427 76.0854 81.1093 75.5633C81.7915 75.0411 82.3422 74.3666 82.7174 73.5937C82.779 73.4594 82.8715 73.3416 82.9874 73.25C83.1033 73.1584 83.2393 73.0955 83.3841 73.0666C83.529 73.0376 83.6787 73.0433 83.8209 73.0833C83.9631 73.1233 84.0938 73.1965 84.2024 73.2967L91.2264 80.3356ZM33.2702 85.4819C34.2055 84.8569 35.3052 84.5234 36.43 84.5234C37.9385 84.5234 39.3851 85.1226 40.4517 86.1892C41.5184 87.2559 42.1176 88.7025 42.1176 90.2109C42.1176 91.3358 41.784 92.4355 41.1591 93.3708C40.5341 94.3061 39.6458 95.0351 38.6066 95.4656C37.5673 95.896 36.4237 96.0086 35.3205 95.7891C34.2172 95.5697 33.2038 95.0281 32.4084 94.2326C31.6129 93.4372 31.0712 92.4238 30.8518 91.3206C30.6323 90.2173 30.745 89.0737 31.1754 88.0344C31.6059 86.9952 32.3349 86.1069 33.2702 85.4819ZM34.351 93.174C34.9664 93.5852 35.6899 93.8046 36.43 93.8046C36.9226 93.8086 37.411 93.7145 37.8668 93.5278C38.3226 93.3412 38.7367 93.0657 39.085 92.7174C39.4333 92.3691 39.7088 91.955 39.8954 91.4992C40.0821 91.0434 40.1762 90.555 40.1722 90.0624C40.1722 89.3223 39.9528 88.5988 39.5416 87.9834C39.1304 87.368 38.5459 86.8883 37.8621 86.6051C37.1783 86.3218 36.4259 86.2478 35.7 86.3922C34.9741 86.5366 34.3073 86.8929 33.7839 87.4163C33.2606 87.9396 32.9041 88.6064 32.7598 89.3323C32.6154 90.0583 32.6895 90.8107 32.9727 91.4945C33.256 92.1783 33.7356 92.7628 34.351 93.174ZM100.062 34.9388C100.982 34.9417 101.882 34.6716 102.649 34.1626C103.415 33.6537 104.013 32.9288 104.367 32.0798C104.721 31.2307 104.815 30.2956 104.638 29.393C104.46 28.4904 104.018 27.6609 103.369 27.0094C102.72 26.3578 101.891 25.9137 100.989 25.7331C100.087 25.5526 99.152 25.6437 98.3018 25.9951C97.4516 26.3464 96.7248 26.9421 96.2134 27.7068C95.702 28.4715 95.4291 29.3708 95.4291 30.2907C95.433 31.5197 95.9219 32.6975 96.7895 33.5679C97.6571 34.4383 98.8333 34.9309 100.062 34.9388ZM100.062 27.5138C100.627 27.5108 101.181 27.6759 101.652 27.9881C102.123 28.3002 102.491 28.7454 102.708 29.267C102.926 29.7886 102.984 30.3631 102.874 30.9176C102.765 31.472 102.493 31.9814 102.093 32.3811C101.694 32.7807 101.184 33.0525 100.63 33.1621C100.075 33.2716 99.5007 33.2139 98.9791 32.9962C98.4575 32.7786 98.0124 32.4109 97.7002 31.9398C97.3881 31.4686 97.223 30.9152 97.2259 30.3501C97.2259 29.5978 97.5247 28.8765 98.0566 28.3445C98.5886 27.8126 99.31 27.5138 100.062 27.5138ZM109.952 40.6563C110.22 40.6563 110.481 40.7356 110.703 40.8841C110.925 41.0326 111.098 41.2436 111.201 41.4906C111.303 41.7375 111.33 42.0093 111.278 42.2714C111.226 42.5335 111.097 42.7742 110.908 42.9632C110.719 43.1522 110.478 43.281 110.216 43.3331C109.954 43.3853 109.682 43.3584 109.435 43.2562C109.188 43.1539 108.977 42.9807 108.829 42.7585C108.68 42.5362 108.601 42.275 108.601 42.0077C108.599 41.8297 108.633 41.6531 108.7 41.4882C108.767 41.3233 108.866 41.1736 108.992 41.0477C109.118 40.9218 109.268 40.8224 109.433 40.7552C109.598 40.688 109.774 40.6543 109.952 40.6563ZM107.839 78.3227C107.616 78.1735 107.354 78.0938 107.086 78.0938C106.91 78.0919 106.734 78.125 106.57 78.1913C106.406 78.2576 106.257 78.3557 106.132 78.48C106.006 78.6043 105.906 78.7523 105.838 78.9155C105.77 79.0786 105.735 79.2536 105.735 79.4304C105.732 79.6982 105.809 79.9609 105.955 80.1851C106.102 80.4093 106.312 80.5848 106.559 80.6893C106.805 80.7939 107.078 80.8228 107.341 80.7723C107.604 80.7219 107.846 80.5944 108.036 80.406C108.227 80.2176 108.357 79.9769 108.41 79.7143C108.464 79.4518 108.438 79.1793 108.336 78.9315C108.234 78.6837 108.061 78.4718 107.839 78.3227ZM81.3512 81.834C81.4682 81.834 81.5841 81.857 81.6922 81.9018C81.8003 81.9466 81.8985 82.0122 81.9812 82.0949C82.064 82.1777 82.1296 82.2759 82.1744 82.384C82.2192 82.4921 82.2422 82.6079 82.2422 82.7249C82.2422 82.9613 82.1483 83.1879 81.9812 83.355C81.8141 83.5221 81.5875 83.616 81.3512 83.616C81.1149 83.616 80.8883 83.5221 80.7212 83.355C80.5541 83.1879 80.4602 82.9613 80.4602 82.7249C80.4602 82.6079 80.4832 82.4921 80.528 82.384C80.5728 82.2759 80.6384 82.1777 80.7212 82.0949C80.8039 82.0122 80.9021 81.9466 81.0102 81.9018C81.1183 81.857 81.2342 81.834 81.3512 81.834ZM94.6799 94.1809C94.4577 94.0324 94.1964 93.9531 93.9292 93.9531C93.5708 93.9531 93.227 94.0955 92.9736 94.3489C92.7202 94.6024 92.5778 94.9461 92.5778 95.3045C92.5778 95.5718 92.6571 95.833 92.8056 96.0553C92.954 96.2775 93.1651 96.4507 93.412 96.553C93.6589 96.6552 93.9307 96.6821 94.1928 96.6299C94.4549 96.5778 94.6957 96.449 94.8847 96.26C95.0737 96.071 95.2024 95.8302 95.2545 95.5681C95.3067 95.306 95.2799 95.0343 95.1776 94.7873C95.0754 94.5404 94.9022 94.3294 94.6799 94.1809ZM53.8046 94.8595C54.0725 94.8595 54.3343 94.9392 54.5568 95.0883C54.7794 95.2375 54.9526 95.4494 55.0544 95.6972C55.1562 95.945 55.1821 96.2174 55.1287 96.48C55.0754 96.7425 54.9452 96.9832 54.7547 97.1716C54.5643 97.36 54.3221 97.4875 54.059 97.538C53.7959 97.5884 53.5237 97.5596 53.277 97.455C53.0304 97.3505 52.8204 97.1749 52.6737 96.9507C52.527 96.7266 52.4503 96.4639 52.4532 96.196C52.4532 96.0192 52.4882 95.8442 52.5563 95.6811C52.6244 95.518 52.7242 95.37 52.8499 95.2457C52.9756 95.1214 53.1247 95.0232 53.2885 94.9569C53.4524 94.8906 53.6278 94.8575 53.8046 94.8595ZM32.7027 74.6482C32.7027 75.3945 32.0977 75.9996 31.3514 75.9996C30.605 75.9996 30 75.3945 30 74.6482C30 73.9019 30.605 73.2969 31.3514 73.2969C32.0977 73.2969 32.7027 73.9019 32.7027 74.6482ZM32.2423 40.6562C32.5096 40.6562 32.7709 40.7355 32.9931 40.884C33.2153 41.0325 33.3885 41.2435 33.4908 41.4905C33.5931 41.7374 33.6199 42.0092 33.5677 42.2713C33.5156 42.5334 33.3869 42.7742 33.1979 42.9631C33.0089 43.1521 32.7681 43.2809 32.506 43.333C32.2438 43.3852 31.9721 43.3584 31.7252 43.2561C31.4783 43.1538 31.2672 42.9806 31.1187 42.7584C30.9702 42.5362 30.891 42.2749 30.891 42.0076C30.891 41.6492 31.0334 41.3055 31.2868 41.0521C31.5402 40.7986 31.8839 40.6562 32.2423 40.6562ZM45.1254 24.8607C44.9032 24.7122 44.642 24.6329 44.3747 24.6329C44.1967 24.6309 44.0201 24.6645 43.8552 24.7317C43.6904 24.7989 43.5406 24.8984 43.4147 25.0243C43.2888 25.1501 43.1894 25.2999 43.1222 25.4648C43.0549 25.6296 43.0213 25.8062 43.0233 25.9842C43.0233 26.2515 43.1026 26.5128 43.2511 26.735C43.3996 26.9573 43.6106 27.1304 43.8575 27.2327C44.1045 27.335 44.3762 27.3617 44.6383 27.3096C44.9005 27.2574 45.1412 27.1288 45.3302 26.9398C45.5192 26.7508 45.6479 26.51 45.7001 26.2479C45.7522 25.9857 45.7255 25.714 45.6232 25.4671C45.5209 25.2202 45.3477 25.0092 45.1254 24.8607Z" fill="url(#paint0_linear_66_128)"/>
</g>
<defs>
<filter id="filter0_d_66_128" x="0" y="0" width="141.304" height="140" filterUnits="userSpaceOnUse" color-interpolation-filters="sRGB">
<feFlood flood-opacity="0" result="BackgroundImageFix"/>
<feColorMatrix in="SourceAlpha" type="matrix" values="0 0 0 0 0 0 0 0 0 0 0 0 0 0 0 0 0 0 127 0" result="hardAlpha"/>
<feOffset dy="10"/>
<feGaussianBlur stdDeviation="15"/>
<feComposite in2="hardAlpha" operator="out"/>
<feColorMatrix type="matrix" values="0 0 0 0 0.368627 0 0 0 0 0.494118 0 0 0 0 1 0 0 0 0.4 0"/>
<feBlend mode="normal" in2="BackgroundImageFix" result="effect1_dropShadow_66_128"/>
<feBlend mode="normal" in="SourceGraphic" in2="effect1_dropShadow_66_128" result="shape"/>
</filter>
<linearGradient id="paint0_linear_66_128" x1="122.767" y1="-96.6666" x2="49.9813" y2="-103.622" gradientUnits="userSpaceOnUse">
<stop stop-color="#3ED3B5"/>
<stop offset="1" stop-color="#5F78FF"/>
</linearGradient>
</defs>
</svg>
