<svg width="28" height="16" viewBox="0 0 28 16" fill="none" xmlns="http://www.w3.org/2000/svg">
<path d="M26.2 1H27.2C27.2 0.447715 26.7523 0 26.2 0V1ZM15 12.2L14.2929 12.9071C14.6834 13.2976 15.3166 13.2976 15.7071 12.9071L15 12.2ZM9.4 6.6L10.1071 5.89289C9.71658 5.50237 9.08342 5.50237 8.69289 5.89289L9.4 6.6ZM0.292893 14.2929C-0.0976311 14.6834 -0.0976311 15.3166 0.292893 15.7071C0.683417 16.0976 1.31658 16.0976 1.70711 15.7071L0.292893 14.2929ZM17.8 0C17.2477 0 16.8 0.447715 16.8 1C16.8 1.55228 17.2477 2 17.8 2V0ZM25.2 9.4C25.2 9.95228 25.6477 10.4 26.2 10.4C26.7523 10.4 27.2 9.95228 27.2 9.4H25.2ZM25.4929 0.292893L14.2929 11.4929L15.7071 12.9071L26.9071 1.70711L25.4929 0.292893ZM15.7071 11.4929L10.1071 5.89289L8.69289 7.30711L14.2929 12.9071L15.7071 11.4929ZM8.69289 5.89289L0.292893 14.2929L1.70711 15.7071L10.1071 7.30711L8.69289 5.89289ZM17.8 2H26.2V0H17.8V2ZM25.2 1V9.4H27.2V1H25.2Z" fill="url(#paint0_linear_1_144)"/>
<defs>
<linearGradient id="paint0_linear_1_144" x1="1" y1="1" x2="13.6" y2="15" gradientUnits="userSpaceOnUse">
<stop stop-color="#5F78FF"/>
<stop offset="1" stop-color="#3ED3B6"/>
</linearGradient>
</defs>
</svg>
