<svg width="24" height="24" viewBox="0 0 24 24" fill="none" xmlns="http://www.w3.org/2000/svg">
<path d="M7.11111 16.8889L16.8889 7.11111M23 12C23 18.0751 18.0751 23 12 23C5.92487 23 1 18.0751 1 12C1 5.92487 5.92487 1 12 1C18.0751 1 23 5.92487 23 12ZM10.7778 8.33333C10.7778 9.68336 9.68336 10.7778 8.33333 10.7778C6.9833 10.7778 5.88889 9.68336 5.88889 8.33333C5.88889 6.9833 6.9833 5.88889 8.33333 5.88889C9.68336 5.88889 10.7778 6.9833 10.7778 8.33333ZM18.1111 15.6667C18.1111 17.0167 17.0167 18.1111 15.6667 18.1111C14.3166 18.1111 13.2222 17.0167 13.2222 15.6667C13.2222 14.3166 14.3166 13.2222 15.6667 13.2222C17.0167 13.2222 18.1111 14.3166 18.1111 15.6667Z" stroke="#3ED3B6" stroke-width="2" stroke-linecap="round" stroke-linejoin="round"/>
</svg>
