<svg width="24" height="24" viewBox="0 0 24 24" fill="none" xmlns="http://www.w3.org/2000/svg">
<path d="M11.675 0H11.6941C18.141 0 23.3692 5.2282 23.3692 11.675V12.325C23.3692 18.7718 18.141 24 11.6941 24H11.675C5.2282 24 0 18.7718 0 12.325V11.675C0 5.2282 5.2282 0 11.675 0Z" fill="#262F4B"/>
<path d="M16.6786 9.03229C16.6404 9.0753 16.5926 9.10876 16.54 9.12787C16.4875 9.15177 16.4301 9.16132 16.3728 9.16132H5.54839C5.16607 9.16132 4.97013 8.68343 5.23775 8.39669L7.01553 6.50899C7.05376 6.46598 7.10155 6.43253 7.1589 6.40864C7.21147 6.38474 7.26882 6.37518 7.32616 6.37518H18.1935C18.5806 6.37518 18.7718 6.85786 18.4994 7.1446L16.6786 9.03229ZM16.6786 17.472C16.5974 17.5532 16.4875 17.601 16.3728 17.601H5.54839C5.16607 17.601 4.97013 17.1327 5.23775 16.8555L7.01553 15.0108C7.05376 14.9678 7.10633 14.9343 7.1589 14.9152C7.21147 14.8913 7.26882 14.8818 7.32616 14.8818H18.1935C18.5806 14.8818 18.7718 15.3549 18.4994 15.6321L16.6786 17.472ZM16.6786 10.7575C16.5974 10.6763 16.4875 10.6285 16.3728 10.6285H5.54839C5.16607 10.6285 4.97013 11.0968 5.23775 11.374L7.01553 13.2187C7.05376 13.2617 7.10633 13.2951 7.1589 13.3143C7.21147 13.3381 7.26882 13.3477 7.32616 13.3477H18.1935C18.5806 13.3477 18.7718 12.8746 18.4994 12.5974L16.6786 10.7575Z" fill="url(#paint0_linear_1_115)"/>
<defs>
<linearGradient id="paint0_linear_1_115" x1="5.94046" y1="17.7411" x2="17.7653" y2="6.22863" gradientUnits="userSpaceOnUse">
<stop stop-color="#CF41E8"/>
<stop offset="1" stop-color="#10F2B0"/>
</linearGradient>
</defs>
</svg>
