<svg width="291" height="191" viewBox="0 0 291 191" fill="none" xmlns="http://www.w3.org/2000/svg">
<path opacity="0.2" d="M83.1363 1V0.5H82.8513L82.7061 0.745294L83.1363 1ZM82.9911 1.2453L82.5609 0.99059V0.990592L82.9911 1.2453ZM74.4534 15.6678L74.0231 15.4131V15.4131L74.4534 15.6678ZM74.3041 15.92L73.8738 15.6653L73.7245 15.9176L73.8717 16.1711L74.3041 15.92ZM74.4513 16.1735L74.8837 15.9225V15.9225L74.4513 16.1735ZM149.383 145.225V145.725H150.251L149.815 144.974L149.383 145.225ZM116.01 145.225L115.578 145.476L115.722 145.725H116.01V145.225ZM60.3113 49.2933L60.7437 49.0422L60.3113 49.2933ZM60.1667 49.0444L60.5991 48.7933L60.4546 48.5444H60.1667V49.0444ZM43.4695 49.0444L43.0371 49.2954L43.1816 49.5444H43.4695V49.0444ZM34.6883 33.9202L35.1207 33.6692L34.6883 33.9202ZM34.5437 33.6713L34.9761 33.4202L34.8316 33.1713H34.5437V33.6713ZM1 33.6713V33.1713H0.128584L0.568335 33.9236L1 33.6713ZM1.43975 34.4236L1.87141 34.1713H1.87141L1.43975 34.4236ZM82.9897 173.939L82.5581 174.191L82.9897 173.939ZM83.1345 174.187L82.7028 174.439L82.8476 174.687H83.1345V174.187ZM99.7716 174.187L100.203 173.934L100.058 173.687H99.7716V174.187ZM108.613 189.312L108.181 189.564L108.613 189.312ZM108.757 189.56L108.326 189.812L108.471 190.06H108.757V189.56ZM208.257 189.56V190.06H208.549L208.692 189.805L208.257 189.56ZM208.4 189.305L208.836 189.55L208.4 189.305ZM216.349 175.177L215.913 174.932L216.349 175.177ZM216.489 174.928L216.924 175.174L217.064 174.925L216.922 174.679L216.489 174.928ZM216.346 174.682L216.779 174.432L216.346 174.682ZM141.411 44.7463V44.2463H140.546L140.978 44.9961L141.411 44.7463ZM175.057 44.7463L175.49 44.4957L175.346 44.2463H175.057V44.7463ZM230.78 140.972L230.347 141.222L230.347 141.222L230.78 140.972ZM230.924 141.221L230.491 141.472L230.636 141.721H230.924V141.221ZM247.645 141.221L248.078 140.97L247.933 140.721H247.645V141.221ZM256.403 156.345L255.97 156.595L255.97 156.595L256.403 156.345ZM256.547 156.594L256.114 156.845L256.259 157.094H256.547V156.594ZM289.203 156.594V157.094H290.069L289.636 156.344L289.203 156.594ZM288.77 155.844L289.203 155.594L288.77 155.844ZM208.397 16.6231L207.964 16.873V16.873L208.397 16.6231ZM208.253 16.373L208.686 16.1231L208.542 15.873H208.253V16.373ZM191.505 16.373L191.072 16.623L191.216 16.873H191.505V16.373ZM182.774 1.25002L182.341 1.5V1.5L182.774 1.25002ZM182.63 1L183.063 0.750018L182.919 0.5H182.63V1ZM190.35 16.373V16.873H191.216L190.783 16.1231L190.35 16.373ZM182.053 2L182.486 1.75002L182.341 1.5H182.053V2ZM83.7065 2V1.5H83.4214L83.2762 1.7453L83.7065 2ZM75.4633 15.9249L75.033 15.6702L74.8837 15.9225L75.0309 16.176L75.4633 15.9249ZM150.684 145.474L150.251 145.725L150.684 145.474ZM151.12 146.225V146.725H151.988L151.552 145.974L151.12 146.225ZM116.591 146.225V145.725H115.722L116.158 146.476L116.591 146.225ZM124.936 160.598L124.503 160.849L124.648 161.098H124.936V160.598ZM175.006 160.598V161.098H175.874L175.438 160.347L175.006 160.598ZM100.074 31.5466L100.507 31.2955V31.2955L100.074 31.5466ZM99.927 31.2931L99.4968 31.0384L99.3475 31.2906L99.4947 31.5441L99.927 31.2931ZM100.076 31.0408L99.6461 30.7861L100.076 31.0408ZM108.614 16.6183L108.184 16.3636V16.3636L108.614 16.6183ZM108.759 16.373V15.873H108.474L108.329 16.1183L108.759 16.373ZM124.215 161.349L124.648 161.098L124.215 161.349ZM115.434 146.225L115.867 145.974L115.722 145.725H115.434V146.225ZM124.36 161.598L123.928 161.849L124.072 162.098H124.36V161.598ZM176.743 161.598V162.098H177.611L177.175 161.347L176.743 161.598ZM176.307 160.847L175.874 161.098L176.307 160.847ZM101.086 31.298L100.656 31.0433L100.507 31.2955L100.654 31.549L101.086 31.298ZM109.329 17.373V16.873H109.044L108.899 17.1183L109.329 17.373ZM190.927 17.373L191.36 17.1231L191.216 16.873H190.927V17.373ZM261.848 140.221V140.721H262.714L262.281 139.971L261.848 140.221ZM248.221 140.221L247.789 140.472L247.933 140.721H248.221V140.221ZM192.499 43.9957L192.066 44.2463V44.2463L192.499 43.9957ZM192.355 43.7463L192.787 43.4958L192.643 43.2463H192.355V43.7463ZM175.634 43.7463L175.201 43.9969L175.346 44.2463H175.634V43.7463ZM166.876 28.6227L166.443 28.8732V28.8733L166.876 28.6227ZM166.732 28.3733L167.164 28.1227L167.02 27.8733H166.732V28.3733ZM114.057 28.3733V27.8733H113.192L113.624 28.623L114.057 28.3733ZM114.49 29.123L114.056 29.3728L114.49 29.123ZM189.715 159.562L190.15 159.807L190.29 159.558L190.148 159.312L189.715 159.562ZM182.049 173.187V173.687H182.341L182.485 173.432L182.049 173.187ZM100.345 173.187L99.9137 173.439L100.058 173.687H100.345V173.187ZM28.3658 50.0444V49.5444H27.4944L27.9341 50.2967L28.3658 50.0444ZM42.8938 50.0444L43.3262 49.7933L43.1816 49.5444H42.8938V50.0444ZM98.5924 145.976L99.0248 145.725L98.5924 145.976ZM98.737 146.225L98.3046 146.476L98.4491 146.725H98.737V146.225ZM114.854 145.225V145.725H115.722L115.286 144.974L114.854 145.225ZM59.591 50.0444L60.0234 49.7933L59.8789 49.5444H59.591V50.0444ZM44.0501 50.0444V49.5444H43.1816L43.6177 50.2954L44.0501 50.0444ZM99.3127 145.225L98.8803 145.476L99.0248 145.725H99.3127V145.225ZM42.3132 49.0444V49.5444H43.1816L42.7456 48.7933L42.3132 49.0444ZM33.968 34.6713L34.4004 34.4202L34.2559 34.1713H33.968V34.6713ZM2.74283 34.6713V34.1713H1.87141L2.31116 34.9236L2.74283 34.6713ZM83.7083 173.187L83.2766 173.439L83.4214 173.687H83.7083V173.187ZM99.187 173.187V173.687H100.058L99.6187 172.934L99.187 173.187ZM27.0627 49.7967L27.4944 49.5443L27.0627 49.7967ZM26.623 49.0444V48.5444H25.7516L26.1913 49.2967L26.623 49.0444ZM100.93 174.187V173.687H100.058L100.498 174.439L100.93 174.187ZM109.331 188.56L108.9 188.812L109.044 189.06H109.331V188.56ZM207.672 188.56V189.06H207.964L208.108 188.805L207.672 188.56ZM215.338 174.935L215.773 175.18L215.913 174.932L215.771 174.685L215.338 174.935ZM140.112 44.4961L139.679 44.7459V44.7459L140.112 44.4961ZM139.68 43.7463V43.2463H138.815L139.247 43.9961L139.68 43.7463ZM174.478 43.7463V44.2463H175.346L174.911 43.4957L174.478 43.7463ZM166.155 29.3733L166.588 29.1227L166.443 28.8733H166.155V29.3733ZM115.788 29.3733V28.8733H114.923L115.355 29.623L115.788 29.3733ZM190.723 159.309L191.156 159.059L190.723 159.309ZM190.866 159.555L191.301 159.801L191.441 159.552L191.299 159.306L190.866 159.555ZM190.726 159.804L190.29 159.558L190.726 159.804ZM182.777 173.932L183.213 174.177L182.777 173.932ZM182.634 174.187V174.687H182.926L183.069 174.432L182.634 174.187ZM176.213 44.7463V44.2463H175.346L175.78 44.9969L176.213 44.7463ZM231.501 140.221L231.068 140.472L231.212 140.721H231.501V140.221ZM247.066 140.221V140.721H247.933L247.498 139.97L247.066 140.221ZM191.778 44.7463L192.211 44.4957L192.066 44.2463H191.778V44.7463ZM248.8 141.221V140.721H247.933L248.368 141.472L248.8 141.221ZM263.58 141.221V141.721H264.446L264.013 140.971L263.58 141.221ZM263.147 140.471L263.58 140.221L263.147 140.471ZM192.082 17.373V16.873H191.216L191.649 17.623L192.082 17.373ZM207.676 17.373L208.109 17.1231L207.964 16.873H207.676V17.373ZM287.471 155.594V156.094H288.337L287.904 155.344L287.471 155.594ZM257.124 155.594L256.691 155.845L256.835 156.094H257.124V155.594ZM83.1363 1.5H83.4214V0.5H83.1363V1.5ZM83.4214 1.5L83.5666 1.25471L82.7061 0.745294L82.5609 0.99059L83.4214 1.5ZM74.8837 15.9225L83.4214 1.5L82.5609 0.990592L74.0231 15.4131L74.8837 15.9225ZM74.7343 16.1747L74.8837 15.9225L74.0231 15.4131L73.8738 15.6653L74.7343 16.1747ZM74.8837 15.9225L74.7365 15.669L73.8717 16.1711L74.0189 16.4246L74.8837 15.9225ZM149.815 144.974L74.8837 15.9225L74.0189 16.4246L148.95 145.476L149.815 144.974ZM116.01 145.725H149.383V144.725H116.01V145.725ZM59.8789 49.5444L115.578 145.476L116.442 144.974L60.7437 49.0422L59.8789 49.5444ZM59.7343 49.2954L59.8789 49.5444L60.7437 49.0422L60.5991 48.7933L59.7343 49.2954ZM59.8789 49.5444H60.1667V48.5444H59.8789V49.5444ZM43.4695 49.5444H59.8789V48.5444H43.4695V49.5444ZM34.2559 34.1713L43.0371 49.2954L43.9019 48.7933L35.1207 33.6692L34.2559 34.1713ZM34.1113 33.9224L34.2559 34.1713L35.1207 33.6692L34.9761 33.4202L34.1113 33.9224ZM34.2559 34.1713H34.5437V33.1713H34.2559V34.1713ZM1.87141 34.1713H34.2559V33.1713H1.87141V34.1713ZM1 34.1713H1.87141V33.1713H1V34.1713ZM1.87141 34.1713L1.43167 33.419L0.568335 33.9236L1.00808 34.6759L1.87141 34.1713ZM83.4214 173.687L1.87141 34.1713L1.00808 34.6759L82.5581 174.191L83.4214 173.687ZM83.5662 173.934L83.4214 173.687L82.5581 174.191L82.7028 174.439L83.5662 173.934ZM83.4214 173.687H83.1345V174.687H83.4214V173.687ZM99.7716 173.687H83.4214V174.687H99.7716V173.687ZM109.044 189.06L100.203 173.934L99.3399 174.439L108.181 189.564L109.044 189.06ZM109.189 189.307L109.044 189.06L108.181 189.564L108.326 189.812L109.189 189.307ZM109.044 189.06H108.757V190.06H109.044V189.06ZM207.964 189.06H109.044V190.06H207.964V189.06ZM208.257 189.06H207.964V190.06H208.257V189.06ZM207.964 189.06L207.821 189.314L208.692 189.805L208.836 189.55L207.964 189.06ZM215.913 174.932L207.964 189.06L208.836 189.55L216.785 175.422L215.913 174.932ZM216.053 174.683L215.913 174.932L216.785 175.422L216.924 175.174L216.053 174.683ZM215.913 174.932L216.055 175.178L216.922 174.679L216.779 174.432L215.913 174.932ZM140.978 44.9961L215.913 174.932L216.779 174.432L141.844 44.4965L140.978 44.9961ZM175.057 44.2463H141.411V45.2463H175.057V44.2463ZM231.212 140.721L175.49 44.4957L174.625 44.9969L230.347 141.222L231.212 140.721ZM231.357 140.97L231.212 140.721L230.347 141.222L230.491 141.472L231.357 140.97ZM231.212 140.721H230.924V141.721H231.212V140.721ZM247.645 140.721H231.212V141.721H247.645V140.721ZM256.835 156.094L248.078 140.97L247.212 141.472L255.97 156.595L256.835 156.094ZM256.98 156.343L256.835 156.094L255.97 156.595L256.114 156.845L256.98 156.343ZM256.835 156.094H256.547V157.094H256.835V156.094ZM288.337 156.094H256.835V157.094H288.337V156.094ZM289.203 156.094H288.337V157.094H289.203V156.094ZM288.337 156.094L288.77 156.844L289.636 156.344L289.203 155.594L288.337 156.094ZM207.964 16.873L288.337 156.094L289.203 155.594L208.83 16.3731L207.964 16.873ZM207.82 16.623L207.964 16.873L208.83 16.3731L208.686 16.1231L207.82 16.623ZM207.964 16.873H208.253V15.873H207.964V16.873ZM191.505 16.873H207.964V15.873H191.505V16.873ZM182.341 1.5L191.072 16.623L191.938 16.1231L183.207 1.00003L182.341 1.5ZM182.197 1.24998L182.341 1.5L183.207 1.00003L183.063 0.750018L182.197 1.24998ZM182.341 1.5H182.63V0.5H182.341V1.5ZM83.4214 1.5H182.341V0.5H83.4214V1.5ZM190.783 16.1231L182.486 1.75002L181.62 2.24998L189.917 16.623L190.783 16.1231ZM182.053 1.5H83.7065V2.5H182.053V1.5ZM83.2762 1.7453L75.033 15.6702L75.8935 16.1796L84.1367 2.2547L83.2762 1.7453ZM75.0309 16.176L150.251 145.725L151.116 145.223L75.8957 15.6738L75.0309 16.176ZM150.251 145.725L150.687 146.476L151.552 145.974L151.116 145.223L150.251 145.725ZM151.12 145.725H150.251V146.725H151.12V145.725ZM150.251 145.725H116.591V146.725H150.251V145.725ZM116.158 146.476L124.503 160.849L125.368 160.347L117.023 145.974L116.158 146.476ZM124.936 161.098H175.006V160.098H124.936V161.098ZM175.438 160.347L100.507 31.2955L99.6419 31.7976L174.573 160.849L175.438 160.347ZM100.507 31.2955L100.359 31.042L99.4947 31.5441L99.6419 31.7976L100.507 31.2955ZM100.357 31.5478L100.507 31.2955L99.6461 30.7861L99.4968 31.0384L100.357 31.5478ZM100.507 31.2955L109.044 16.873L108.184 16.3636L99.6461 30.7861L100.507 31.2955ZM109.044 16.873L109.19 16.6278L108.329 16.1183L108.184 16.3636L109.044 16.873ZM108.759 16.873H109.044V15.873H108.759V16.873ZM109.044 16.873H190.35V15.873H109.044V16.873ZM124.648 161.098L115.867 145.974L115.002 146.476L123.783 161.6L124.648 161.098ZM124.792 161.347L124.648 161.098L123.783 161.6L123.928 161.849L124.792 161.347ZM124.648 161.098H124.36V162.098H124.648V161.098ZM175.874 161.098H124.648V162.098H175.874V161.098ZM176.743 161.098H175.874V162.098H176.743V161.098ZM175.874 161.098L176.31 161.849L177.175 161.347L176.739 160.596L175.874 161.098ZM100.654 31.549L175.874 161.098L176.739 160.596L101.519 31.0469L100.654 31.549ZM108.899 17.1183L100.656 31.0433L101.516 31.5527L109.76 17.6278L108.899 17.1183ZM190.927 16.873H109.329V17.873H190.927V16.873ZM262.281 139.971L191.36 17.1231L190.494 17.623L261.415 140.471L262.281 139.971ZM248.221 140.721H261.848V139.721H248.221V140.721ZM192.066 44.2463L247.789 140.472L248.654 139.97L192.932 43.7452L192.066 44.2463ZM191.922 43.9968L192.066 44.2463L192.932 43.7452L192.787 43.4958L191.922 43.9968ZM192.066 44.2463H192.355V43.2463H192.066V44.2463ZM175.634 44.2463H192.066V43.2463H175.634V44.2463ZM166.443 28.8733L175.201 43.9969L176.067 43.4957L167.309 28.3721L166.443 28.8733ZM166.299 28.6238L166.443 28.8732L167.309 28.3721L167.164 28.1227L166.299 28.6238ZM166.443 28.8733H166.732V27.8733H166.443V28.8733ZM114.923 28.8733H166.443V27.8733H114.923V28.8733ZM114.057 28.8733H114.923V27.8733H114.057V28.8733ZM114.923 28.8733L114.49 28.1235L113.624 28.623L114.056 29.3728L114.923 28.8733ZM190.148 159.312L114.923 28.8733L114.056 29.3728L189.282 159.811L190.148 159.312ZM182.485 173.432L190.15 159.807L189.279 159.316L181.613 172.941L182.485 173.432ZM100.345 173.687H182.049V172.687H100.345V173.687ZM27.9341 50.2967L99.9137 173.439L100.777 172.934L28.7975 49.792L27.9341 50.2967ZM42.8938 49.5444H28.3658V50.5444H42.8938V49.5444ZM99.0248 145.725L43.3262 49.7933L42.4614 50.2954L98.16 146.227L99.0248 145.725ZM99.1694 145.974L99.0248 145.725L98.16 146.227L98.3046 146.476L99.1694 145.974ZM99.0248 145.725H98.737V146.725H99.0248V145.725ZM115.434 145.725H99.0248V146.725H115.434V145.725ZM115.286 144.974L60.0234 49.7933L59.1586 50.2954L114.421 145.476L115.286 144.974ZM59.591 49.5444H44.0501V50.5444H59.591V49.5444ZM43.6177 50.2954L98.8803 145.476L99.7451 144.974L44.4825 49.7933L43.6177 50.2954ZM99.3127 145.725H114.854V144.725H99.3127V145.725ZM42.7456 48.7933L34.4004 34.4202L33.5356 34.9224L41.8808 49.2954L42.7456 48.7933ZM33.968 34.1713H2.74283V35.1713H33.968V34.1713ZM2.31116 34.9236L83.2766 173.439L84.1399 172.934L3.17449 34.419L2.31116 34.9236ZM83.7083 173.687H99.187V172.687H83.7083V173.687ZM99.6187 172.934L27.4944 49.5443L26.6311 50.049L98.7554 173.439L99.6187 172.934ZM27.4944 49.5443L27.0546 48.792L26.1913 49.2967L26.6311 50.049L27.4944 49.5443ZM26.623 49.5444H27.4944V48.5444H26.623V49.5444ZM27.4944 49.5444H42.3132V48.5444H27.4944V49.5444ZM100.498 174.439L108.9 188.812L109.763 188.307L101.362 173.934L100.498 174.439ZM109.331 189.06H207.672V188.06H109.331V189.06ZM208.108 188.805L215.773 175.18L214.902 174.689L207.236 188.314L208.108 188.805ZM215.771 174.685L140.546 44.2463L139.679 44.7459L214.905 175.184L215.771 174.685ZM140.546 44.2463L140.113 43.4965L139.247 43.9961L139.679 44.7459L140.546 44.2463ZM139.68 44.2463H140.546V43.2463H139.68V44.2463ZM140.546 44.2463H174.478V43.2463H140.546V44.2463ZM174.911 43.4957L166.588 29.1227L165.722 29.6238L174.046 43.9969L174.911 43.4957ZM166.155 28.8733H115.788V29.8733H166.155V28.8733ZM115.355 29.623L190.29 159.558L191.156 159.059L116.221 29.1235L115.355 29.623ZM190.29 159.558L190.432 159.805L191.299 159.306L191.156 159.059L190.29 159.558ZM190.43 159.31L190.29 159.558L191.162 160.049L191.301 159.801L190.43 159.31ZM190.29 159.558L182.341 173.687L183.213 174.177L191.162 160.049L190.29 159.558ZM182.341 173.687L182.198 173.941L183.069 174.432L183.213 174.177L182.341 173.687ZM182.634 173.687H182.341V174.687H182.634V173.687ZM182.341 173.687H100.93V174.687H182.341V173.687ZM175.78 44.9969L231.068 140.472L231.933 139.97L176.646 44.4957L175.78 44.9969ZM231.501 140.721H247.066V139.721H231.501V140.721ZM247.498 139.97L192.211 44.4957L191.345 44.9969L246.633 140.472L247.498 139.97ZM191.778 44.2463H176.213V45.2463H191.778V44.2463ZM262.714 140.721H248.8V141.721H262.714V140.721ZM263.58 140.721H262.714V141.721H263.58V140.721ZM262.714 140.721L263.147 141.471L264.013 140.971L263.58 140.221L262.714 140.721ZM191.649 17.623L262.714 140.721L263.58 140.221L192.515 17.1231L191.649 17.623ZM207.676 16.873H192.082V17.873H207.676V16.873ZM287.904 155.344L208.109 17.1231L207.242 17.623L287.038 155.844L287.904 155.344ZM257.124 156.094H287.471V155.094H257.124V156.094ZM248.368 141.472L256.691 155.845L257.556 155.343L249.233 140.97L248.368 141.472Z" fill="url(#paint0_linear_66_85)"/>
<defs>
<linearGradient id="paint0_linear_66_85" x1="232.254" y1="11.0213" x2="32.8826" y2="132.817" gradientUnits="userSpaceOnUse">
<stop stop-color="#40D0B8"/>
<stop offset="0.541456" stop-color="#5E7DFC"/>
<stop offset="0.827402" stop-color="#5E7DFC" stop-opacity="0.1"/>
</linearGradient>
</defs>
</svg>
