<svg width="382" height="407" viewBox="0 0 382 407" fill="none" xmlns="http://www.w3.org/2000/svg">
<path opacity="0.2" d="M71.3558 318.166L54.0655 273.624M71.3558 318.166L101.354 287.579M71.3558 318.166L104.532 341.314M36.7751 229.083L18.9656 183.568M36.7751 229.083L61.1419 203.583M36.7751 229.083L54.0655 273.624M43.862 108.606L70.5851 91.4354M43.862 108.606L19.4586 125.433M43.862 108.606L67.8164 137.09M70.5851 91.4354L100.527 58.7875M70.5851 91.4354L94.5209 112.844M257.373 106.837L231.118 80.4137M257.373 106.837L287.865 146.629M257.373 106.837L234.868 134.261M271.077 315.168L249.241 294.972M271.077 315.168L242.522 346.519M271.077 315.168L309.278 296.455M216.412 380.484L196.953 405.799L164.453 383.123M216.412 380.484L188.684 359.397M216.412 380.484L242.522 346.519M160.956 338.309L129.531 313.81M160.956 338.309L137.032 363.99M160.956 338.309L188.684 359.397M160.956 338.309L195.243 301.684M129.531 313.81L101.354 287.579M129.531 313.81L104.532 341.314M129.531 313.81L165.551 274.176M101.354 287.579L82.3168 251.887M101.354 287.579L139.259 244.438M82.3168 251.887L61.1419 203.583M82.3168 251.887L54.0655 273.624M82.3168 251.887L113.704 211.39M61.1419 203.583L40.6354 162.007M61.1419 203.583L90.815 173.169M40.6354 162.007L19.4586 125.433M40.6354 162.007L18.9656 183.568M40.6354 162.007L67.8164 137.09M19.4586 125.433L1.15612 138.053L18.9656 183.568M104.532 341.314L137.032 363.99M137.032 363.99L164.453 383.123M164.453 383.123L188.684 359.397M188.684 359.397L220.39 325.364M220.39 325.364L249.241 294.972M220.39 325.364L195.243 301.684M220.39 325.364L242.522 346.519M249.241 294.972L287.311 270.915M249.241 294.972L225.654 267.959M287.311 270.915L324.255 247.875M287.311 270.915L258.293 237.63M287.311 270.915L309.278 296.455M324.255 247.875L352.135 230.505M324.255 247.875L349.925 280.357M324.255 247.875L293.594 208.382M352.135 230.505L380.926 268.078L349.925 280.357M352.135 230.505L318.356 186.422M349.925 280.357L309.278 296.455M293.594 208.382L263.024 169.256M293.594 208.382L258.293 237.63M293.594 208.382L318.356 186.422M234.868 134.261L260.726 166.314L263.024 169.256M234.868 134.261L208.768 107.231M234.868 134.261L203.762 172.941M130.469 26.1396L152.892 1.68969L178.877 27.8402M130.469 26.1396L182.668 80.2004M130.469 26.1396L100.527 58.7875M178.877 27.8402L125.536 83.3815M178.877 27.8402L204.862 53.9908M125.536 83.3815L94.5209 112.844M125.536 83.3815L151.287 111.324M125.536 83.3815L100.527 58.7875M94.5209 112.844L67.8164 137.09M94.5209 112.844L121.007 143.728M67.8164 137.09L90.815 173.169M90.815 173.169L121.007 143.728M90.815 173.169L113.704 211.39M121.007 143.728L151.287 111.324M121.007 143.728L146.216 176.128M151.287 111.324L182.668 80.2004M151.287 111.324L177.428 141.559M182.668 80.2004L204.862 53.9908M182.668 80.2004L208.768 107.231M204.862 53.9908L231.118 80.4137M231.118 80.4137L208.768 107.231M208.768 107.231L177.428 141.559M177.428 141.559L146.216 176.128M177.428 141.559L203.762 172.941M146.216 176.128L113.704 211.39M146.216 176.128L172.247 208.505M113.704 211.39L139.259 244.438M139.259 244.438L172.247 208.505M139.259 244.438L165.551 274.176M172.247 208.505L203.762 172.941M172.247 208.505L197.889 238.59M203.762 172.941L233.518 202.915M263.024 169.256L233.518 202.915M263.024 169.256L287.865 146.629M233.518 202.915L197.889 238.59M233.518 202.915L258.293 237.63M197.889 238.59L165.551 274.176M197.889 238.59L225.654 267.959M165.551 274.176L195.243 301.684M195.243 301.684L225.654 267.959M225.654 267.959L258.293 237.63M318.356 186.422L287.865 146.629" stroke="url(#paint0_linear_1_124)"/>
<defs>
<linearGradient id="paint0_linear_1_124" x1="6.99999" y1="164" x2="268.779" y2="347.195" gradientUnits="userSpaceOnUse">
<stop stop-color="#40D0B8"/>
<stop offset="0.541456" stop-color="#5E7DFC"/>
<stop offset="0.827402" stop-color="#5E7DFC" stop-opacity="0.1"/>
</linearGradient>
</defs>
</svg>
