<svg width="333" height="397" viewBox="0 0 333 397" fill="none" xmlns="http://www.w3.org/2000/svg">
<path opacity="0.2" d="M15.5691 150.247L45.9551 113.374M15.5691 150.247L56.9224 161.443M15.5691 150.247L11.6136 190.507M76.3411 76.5011L107.322 38.6993M76.3411 76.5011L110.502 85.2754M76.3411 76.5011L45.9551 113.374M184.879 23.7348L212.93 38.6393M184.879 23.7348L158.264 10.6849M184.879 23.7348L171.758 58.5626M212.93 38.6393L256.053 48.7784M212.93 38.6393L205.97 69.9892M290.89 209.078L301.088 173.251M290.89 209.078L271.105 255.14M290.89 209.078L255.961 202.868M115.903 322.962L122.833 294.036M115.903 322.962L74.5903 313.397M115.903 322.962L150.915 347.122M32.1929 307.245L0.594812 302.66L4.46956 263.222M32.1929 307.245L37.017 272.745M32.1929 307.245L74.5903 313.397M41.8411 238.245L47.8316 198.851M41.8411 238.245L7.73887 229.945M41.8411 238.245L37.017 272.745M41.8411 238.245L90.5596 250.227M47.8316 198.851L56.9224 161.443M47.8316 198.851L11.6136 190.507M47.8316 198.851L100.022 210.873M56.9224 161.443L78.7353 127.377M56.9224 161.443L113.093 173.393M78.7353 127.377L110.502 85.2754M78.7353 127.377L45.9551 113.374M78.7353 127.377L129.412 134.936M110.502 85.2754L136.728 47.0488M110.502 85.2754L151.546 96.2731M136.728 47.0488L158.264 10.6849M136.728 47.0488L107.322 38.6993M136.728 47.0488L171.758 58.5626M158.264 10.6849L138.303 0.89756L107.322 38.6993M11.6136 190.507L7.73887 229.945M7.73887 229.945L4.46956 263.222M4.46956 263.222L37.017 272.745M37.017 272.745L82.2117 283.745M82.2117 283.745L122.833 294.036M82.2117 283.745L90.5596 250.227M82.2117 283.745L74.5903 313.397M122.833 294.036L162.441 315.468M122.833 294.036L134.851 260.248M162.441 315.468L200.61 336.415M162.441 315.468L177.271 273.874M162.441 315.468L150.915 347.122M200.61 336.415L229.401 352.23M200.61 336.415L184.842 374.694M200.61 336.415L220.052 290.351M229.401 352.23L210.719 395.724L184.842 374.694M229.401 352.23L251.319 301.202M184.842 374.694L150.915 347.122M220.052 290.351L239.217 244.547M220.052 290.351L177.271 273.874M220.052 290.351L251.319 301.202M255.961 202.868L240.658 241.103L239.217 244.547M255.961 202.868L266.764 166.881M255.961 202.868L207.007 194.666M299.176 58.9174L331.47 66.5106L321.378 101.968M299.176 58.9174L277.568 130.893M299.176 58.9174L256.053 48.7784M321.378 101.968L246.84 82.6226M321.378 101.968L311.285 137.425M246.84 82.6226L205.97 69.9892M246.84 82.6226L235.071 118.753M246.84 82.6226L256.053 48.7784M205.97 69.9892L171.758 58.5626M205.97 69.9892L191.994 108.2M171.758 58.5626L151.546 96.2731M151.546 96.2731L191.994 108.2M151.546 96.2731L129.412 134.936M191.994 108.2L235.071 118.753M191.994 108.2L176.072 146.037M235.071 118.753L277.568 130.893M235.071 118.753L221.492 156.344M277.568 130.893L311.285 137.425M277.568 130.893L266.764 166.881M311.285 137.425L301.088 173.251M301.088 173.251L266.764 166.881M266.764 166.881L221.492 156.344M221.492 156.344L176.072 146.037M221.492 156.344L207.007 194.666M176.072 146.037L129.412 134.936M176.072 146.037L160.571 184.581M129.412 134.936L113.093 173.393M113.093 173.393L160.571 184.581M113.093 173.393L100.022 210.873M160.571 184.581L207.007 194.666M160.571 184.581L146.88 221.664M207.007 194.666L195.425 235.283M239.217 244.547L195.425 235.283M239.217 244.547L271.105 255.14M195.425 235.283L146.88 221.664M195.425 235.283L177.271 273.874M146.88 221.664L100.022 210.873M146.88 221.664L134.851 260.248M100.022 210.873L90.5596 250.227M90.5596 250.227L134.851 260.248M134.851 260.248L177.271 273.874M251.319 301.202L271.105 255.14" stroke="url(#paint0_linear_1_125)"/>
<defs>
<linearGradient id="paint0_linear_1_125" x1="239" y1="19.001" x2="-12.2381" y2="243.156" gradientUnits="userSpaceOnUse">
<stop stop-color="#40D0B8" stop-opacity="0.4"/>
<stop offset="0.44302" stop-color="#5E7DFC"/>
<stop offset="0.827402" stop-color="#5E7DFC" stop-opacity="0.1"/>
</linearGradient>
</defs>
</svg>
